<svg xmlns="http://www.w3.org/2000/svg" xmlns:xlink="http://www.w3.org/1999/xlink" width="1920" zoomAndPan="magnify" viewBox="0 0 1440 809.999993" height="1080" preserveAspectRatio="xMidYMid meet" version="1.0"><defs><clipPath id="c3269ff6bc"><path d="M 390.75 255.316406 L 515.25 255.316406 L 515.25 385.816406 L 390.75 385.816406 Z M 390.75 255.316406 " clip-rule="nonzero"/></clipPath><clipPath id="1b0afca746"><path d="M 531.945312 255.316406 L 663.945312 255.316406 L 663.945312 385.816406 L 531.945312 385.816406 Z M 531.945312 255.316406 " clip-rule="nonzero"/></clipPath><clipPath id="9ffc5a2673"><path d="M 533 256 L 663.945312 256 L 663.945312 385.816406 L 533 385.816406 Z M 533 256 " clip-rule="nonzero"/></clipPath><clipPath id="71c0f326bc"><path d="M 531.945312 255.316406 L 653 255.316406 L 653 376 L 531.945312 376 Z M 531.945312 255.316406 " clip-rule="nonzero"/></clipPath><clipPath id="b43b34ff52"><path d="M 680.75 255.316406 L 742.25 255.316406 L 742.25 385.816406 L 680.75 385.816406 Z M 680.75 255.316406 " clip-rule="nonzero"/></clipPath><clipPath id="2b52d36632"><path d="M 682 256 L 742.25 256 L 742.25 385.816406 L 682 385.816406 Z M 682 256 " clip-rule="nonzero"/></clipPath><clipPath id="6323b78506"><path d="M 680.75 255.316406 L 731 255.316406 L 731 376 L 680.75 376 Z M 680.75 255.316406 " clip-rule="nonzero"/></clipPath><clipPath id="469013d196"><path d="M 759 255.316406 L 883 255.316406 L 883 385.816406 L 759 385.816406 Z M 759 255.316406 " clip-rule="nonzero"/></clipPath><clipPath id="e6347b4320"><path d="M 900 255.316406 L 1049.714844 255.316406 L 1049.714844 385.816406 L 900 385.816406 Z M 900 255.316406 " clip-rule="nonzero"/></clipPath><clipPath id="f0da35f1c0"><path d="M 472.785156 422.25 L 590.535156 422.25 L 590.535156 554.25 L 472.785156 554.25 Z M 472.785156 422.25 " clip-rule="nonzero"/></clipPath><clipPath id="12277aa417"><path d="M 474 433 L 590.535156 433 L 590.535156 554.25 L 474 554.25 Z M 474 433 " clip-rule="nonzero"/></clipPath><clipPath id="52f91d6cbf"><path d="M 472.785156 422.25 L 580 422.25 L 580 545 L 472.785156 545 Z M 472.785156 422.25 " clip-rule="nonzero"/></clipPath><clipPath id="878ed41f3c"><path d="M 607.566406 422.25 L 753.816406 422.25 L 753.816406 554.25 L 607.566406 554.25 Z M 607.566406 422.25 " clip-rule="nonzero"/></clipPath><clipPath id="129064d3df"><path d="M 609 423 L 753.816406 423 L 753.816406 554.25 L 609 554.25 Z M 609 423 " clip-rule="nonzero"/></clipPath><clipPath id="d9422d7190"><path d="M 607.566406 422.25 L 742 422.25 L 742 545 L 607.566406 545 Z M 607.566406 422.25 " clip-rule="nonzero"/></clipPath><clipPath id="48c4dc83bb"><path d="M 770.4375 422.25 L 904.6875 422.25 L 904.6875 554.25 L 770.4375 554.25 Z M 770.4375 422.25 " clip-rule="nonzero"/></clipPath><clipPath id="af4e385d7a"><path d="M 772 423 L 904.6875 423 L 904.6875 554.25 L 772 554.25 Z M 772 423 " clip-rule="nonzero"/></clipPath><clipPath id="4baf933cd6"><path d="M 770.4375 422.25 L 893 422.25 L 893 545 L 770.4375 545 Z M 770.4375 422.25 " clip-rule="nonzero"/></clipPath><clipPath id="688ddb7d6d"><path d="M 921.132812 427 L 1024 427 L 1024 554 L 921.132812 554 Z M 921.132812 427 " clip-rule="nonzero"/></clipPath><clipPath id="485d7d46c2"><path d="M 939 422.25 L 1044.882812 422.25 L 1044.882812 552 L 939 552 Z M 939 422.25 " clip-rule="nonzero"/></clipPath></defs><g clip-path="url(#c3269ff6bc)"><path fill="#201b2c" d="M 501.214844 255.316406 L 458.167969 255.316406 L 458.167969 324 C 458.167969 328.226562 457.167969 331.3125 455.109375 333.371094 C 453.359375 335.121094 450.9375 336.039062 447.824219 336.316406 L 447.824219 269.21875 L 433.921875 255.316406 L 390.902344 255.316406 L 390.902344 322.523438 C 390.902344 328.113281 391.988281 334.539062 394.101562 341.601562 C 395.546875 346.4375 398.21875 351.109375 402.027344 355.558594 C 403.445312 357.226562 415.984375 373.105469 428.554688 379.695312 C 433.144531 382.085938 438.789062 383.699219 445.40625 384.480469 C 451.550781 385.203125 457.308594 385.5625 462.535156 385.5625 C 471.851562 385.5625 480.054688 384.285156 486.839844 381.753906 C 492.039062 379.835938 497.042969 376.527344 501.660156 371.910156 C 506.304688 367.265625 509.75 361.761719 511.949219 355.558594 C 514.0625 349.554688 515.117188 343.101562 515.117188 336.402344 L 515.117188 269.21875 Z M 501.214844 255.316406 " fill-opacity="1" fill-rule="nonzero"/></g><path fill="#77ffc0" d="M 463.730469 260.875 L 495.625 260.875 L 495.625 322.523438 C 495.625 328.640625 494.679688 334.398438 492.761719 339.847656 C 490.84375 345.269531 487.867188 350.027344 483.808594 354.113281 C 479.746094 358.171875 475.464844 361.039062 470.988281 362.679688 C 464.789062 364.984375 457.308594 366.125 448.605469 366.125 C 443.570312 366.125 438.066406 365.765625 432.113281 365.070312 C 426.164062 364.375 421.1875 362.957031 417.183594 360.871094 C 413.175781 358.785156 409.535156 355.808594 406.199219 351.945312 C 402.890625 348.078125 400.609375 344.101562 399.386719 340.015625 C 397.464844 333.453125 396.464844 327.613281 396.464844 322.523438 L 396.464844 260.875 L 428.359375 260.875 L 428.359375 324 C 428.359375 329.644531 429.917969 334.035156 433.058594 337.234375 C 436.203125 340.40625 440.539062 341.988281 446.074219 341.988281 C 451.578125 341.988281 455.890625 340.433594 459.03125 337.289062 C 462.171875 334.175781 463.730469 329.726562 463.730469 324 Z M 463.730469 260.875 " fill-opacity="1" fill-rule="nonzero"/><g clip-path="url(#1b0afca746)"><path fill="#77ffc0" d="M 664.191406 270.003906 L 664.191406 380.5625 C 664.191406 383.265625 662.003906 385.453125 659.300781 385.453125 L 620.882812 385.453125 C 619.695312 385.453125 618.578125 385.015625 617.699219 384.265625 L 617.703125 384.277344 L 606.574219 374.8125 L 606.578125 374.808594 C 606.007812 374.417969 605.511719 373.917969 605.140625 373.308594 L 591.757812 351.316406 L 591.757812 380.5625 C 591.757812 383.265625 589.566406 385.453125 586.867188 385.453125 L 548.449219 385.453125 C 547.140625 385.453125 545.957031 384.9375 545.082031 384.105469 L 545.082031 384.109375 L 533.78125 374.546875 C 532.691406 373.648438 531.992188 372.289062 531.992188 370.765625 L 531.992188 260.207031 C 531.992188 257.503906 534.183594 255.316406 536.886719 255.316406 L 575.449219 255.316406 C 576.605469 255.316406 577.703125 255.730469 578.566406 256.449219 L 578.570312 256.441406 L 589.808594 265.996094 L 589.804688 265.996094 C 590.371094 266.394531 590.863281 266.90625 591.226562 267.523438 L 604.429688 289.953125 L 604.429688 260.207031 C 604.429688 257.503906 606.617188 255.316406 609.320312 255.316406 L 647.738281 255.316406 C 648.949219 255.316406 650.054688 255.757812 650.910156 256.488281 L 662.394531 266.214844 C 662.410156 266.226562 662.425781 266.242188 662.441406 266.253906 L 662.476562 266.285156 C 663.523438 267.183594 664.191406 268.515625 664.191406 270.003906 Z M 664.191406 270.003906 " fill-opacity="1" fill-rule="nonzero"/></g><g clip-path="url(#9ffc5a2673)"><path fill="#201b2c" d="M 664.191406 270.003906 L 664.191406 380.5625 C 664.191406 383.265625 662.003906 385.453125 659.300781 385.453125 L 620.882812 385.453125 C 619.695312 385.453125 618.578125 385.015625 617.699219 384.265625 L 617.703125 384.277344 L 606.574219 374.8125 L 606.578125 374.808594 C 607.375 375.347656 608.324219 375.65625 609.320312 375.65625 L 647.738281 375.65625 C 650.4375 375.65625 652.628906 373.46875 652.628906 370.765625 L 652.628906 260.207031 C 652.628906 258.71875 651.960938 257.386719 650.910156 256.488281 L 662.394531 266.214844 C 662.410156 266.226562 662.425781 266.242188 662.441406 266.253906 L 662.476562 266.285156 C 663.523438 267.183594 664.191406 268.515625 664.191406 270.003906 Z M 580.195312 334.84375 L 580.195312 370.765625 C 580.195312 373.46875 578.003906 375.65625 575.300781 375.65625 L 536.886719 375.65625 C 535.707031 375.65625 534.625 375.242188 533.78125 374.546875 L 545.082031 384.109375 L 545.082031 384.105469 C 545.957031 384.9375 547.140625 385.453125 548.449219 385.453125 L 586.867188 385.453125 C 589.566406 385.453125 591.757812 383.265625 591.757812 380.5625 L 591.757812 351.316406 L 580.148438 332.242188 C 580.179688 333.109375 580.195312 333.972656 580.195312 334.84375 Z M 579.664062 257.726562 L 604.703125 300.269531 C 604.527344 297.96875 604.429688 295.65625 604.429688 293.34375 L 604.429688 289.953125 L 591.226562 267.523438 C 590.863281 266.90625 590.371094 266.394531 589.804688 265.996094 L 589.808594 265.996094 L 578.570312 256.441406 L 578.566406 256.449219 C 578.996094 256.804688 579.375 257.230469 579.664062 257.726562 Z M 579.664062 257.726562 " fill-opacity="1" fill-rule="nonzero"/></g><g clip-path="url(#71c0f326bc)"><path fill="#77ffc0" d="M 647.738281 375.65625 C 650.4375 375.65625 652.628906 373.46875 652.628906 370.765625 L 652.628906 260.207031 C 652.628906 258.71875 651.960938 257.386719 650.910156 256.488281 C 650.054688 255.757812 648.949219 255.316406 647.738281 255.316406 L 609.320312 255.316406 C 606.617188 255.316406 604.429688 257.503906 604.429688 260.207031 L 604.429688 293.34375 C 604.429688 295.65625 604.527344 297.96875 604.703125 300.269531 L 579.664062 257.726562 C 579.375 257.230469 578.996094 256.804688 578.566406 256.449219 C 577.703125 255.730469 576.605469 255.316406 575.449219 255.316406 L 536.886719 255.316406 C 534.183594 255.316406 531.992188 257.503906 531.992188 260.207031 L 531.992188 370.765625 C 531.992188 372.289062 532.691406 373.648438 533.78125 374.546875 C 534.625 375.242188 535.707031 375.65625 536.886719 375.65625 L 575.300781 375.65625 C 578.003906 375.65625 580.195312 373.46875 580.195312 370.765625 L 580.195312 334.84375 C 580.195312 333.972656 580.179688 333.109375 580.148438 332.242188 L 591.757812 351.316406 L 605.140625 373.308594 C 605.511719 373.917969 606.007812 374.417969 606.578125 374.808594 C 607.375 375.347656 608.324219 375.65625 609.320312 375.65625 Z M 648.144531 339.847656 C 648.144531 341.902344 646.464844 343.425781 644.476562 343.515625 C 642.496094 343.605469 640.808594 341.765625 640.808594 339.847656 L 640.808594 317.042969 C 640.808594 314.988281 642.488281 313.464844 644.476562 313.375 C 646.457031 313.285156 648.144531 315.125 648.144531 317.042969 Z M 644.476562 310.085938 C 642.417969 310.085938 640.894531 308.40625 640.808594 306.417969 C 640.71875 304.4375 642.558594 302.75 644.476562 302.75 C 646.53125 302.75 648.054688 304.429688 648.144531 306.417969 C 648.234375 308.398438 646.394531 310.085938 644.476562 310.085938 Z M 644.476562 310.085938 " fill-opacity="1" fill-rule="nonzero"/></g><path fill="#201b2c" d="M 648.144531 317.042969 L 648.144531 339.847656 C 648.144531 341.902344 646.464844 343.425781 644.476562 343.515625 C 642.496094 343.605469 640.808594 341.765625 640.808594 339.847656 L 640.808594 317.042969 C 640.808594 314.988281 642.488281 313.464844 644.476562 313.375 C 646.457031 313.285156 648.144531 315.125 648.144531 317.042969 Z M 644.476562 302.75 C 642.558594 302.75 640.71875 304.4375 640.808594 306.417969 C 640.894531 308.40625 642.417969 310.085938 644.476562 310.085938 C 646.394531 310.085938 648.234375 308.398438 648.144531 306.417969 C 648.054688 304.429688 646.53125 302.75 644.476562 302.75 Z M 644.476562 302.75 " fill-opacity="1" fill-rule="nonzero"/><g clip-path="url(#b43b34ff52)"><path fill="#77ffc0" d="M 742.257812 270.015625 L 742.257812 380.542969 C 742.257812 383.246094 740.066406 385.433594 737.367188 385.433594 L 697.203125 385.433594 C 696.15625 385.433594 695.191406 385.105469 694.398438 384.546875 C 694.152344 384.375 693.921875 384.183594 693.714844 383.96875 L 682.558594 374.542969 C 682.535156 374.523438 682.511719 374.503906 682.488281 374.484375 C 682.488281 374.484375 682.484375 374.480469 682.480469 374.480469 C 681.425781 373.582031 680.75 372.246094 680.75 370.75 L 680.75 260.222656 C 680.75 257.523438 682.941406 255.332031 685.640625 255.332031 L 725.804688 255.332031 C 727.1875 255.332031 728.429688 255.90625 729.320312 256.828125 L 740.289062 266.101562 C 740.457031 266.226562 740.617188 266.363281 740.769531 266.507812 C 741.683594 267.398438 742.257812 268.640625 742.257812 270.015625 Z M 742.257812 270.015625 " fill-opacity="1" fill-rule="nonzero"/></g><g clip-path="url(#2b52d36632)"><path fill="#201b2c" d="M 742.257812 270.015625 L 742.257812 380.542969 C 742.257812 383.246094 740.066406 385.433594 737.367188 385.433594 L 697.203125 385.433594 C 696.15625 385.433594 695.191406 385.105469 694.398438 384.546875 C 694.152344 384.375 693.921875 384.183594 693.714844 383.96875 L 682.558594 374.542969 C 683.398438 375.230469 684.472656 375.640625 685.640625 375.640625 L 725.804688 375.640625 C 728.507812 375.640625 730.695312 373.449219 730.695312 370.75 L 730.695312 260.222656 C 730.695312 258.902344 730.171875 257.707031 729.320312 256.828125 L 740.289062 266.101562 C 740.457031 266.226562 740.617188 266.363281 740.769531 266.507812 C 741.683594 267.398438 742.257812 268.640625 742.257812 270.015625 Z M 742.257812 270.015625 " fill-opacity="1" fill-rule="nonzero"/></g><g clip-path="url(#6323b78506)"><path fill="#77ffc0" d="M 725.804688 375.640625 C 728.507812 375.640625 730.695312 373.449219 730.695312 370.75 L 730.695312 260.222656 C 730.695312 258.902344 730.171875 257.707031 729.320312 256.828125 C 728.429688 255.90625 727.1875 255.332031 725.804688 255.332031 L 685.640625 255.332031 C 682.941406 255.332031 680.75 257.523438 680.75 260.222656 L 680.75 370.75 C 680.75 372.246094 681.425781 373.582031 682.480469 374.480469 C 682.484375 374.480469 682.484375 374.484375 682.488281 374.484375 C 682.511719 374.503906 682.535156 374.523438 682.558594 374.542969 C 683.398438 375.230469 684.472656 375.640625 685.640625 375.640625 Z M 726.214844 314.289062 C 726.214844 316.34375 724.53125 317.867188 722.546875 317.957031 C 720.566406 318.042969 718.878906 316.207031 718.878906 314.289062 L 718.878906 289.339844 C 718.878906 287.28125 720.558594 285.761719 722.546875 285.671875 C 724.527344 285.582031 726.214844 287.421875 726.214844 289.339844 Z M 722.546875 282.800781 C 720.488281 282.800781 718.96875 281.121094 718.878906 279.132812 C 718.789062 277.152344 720.628906 275.464844 722.546875 275.464844 C 724.601562 275.464844 726.125 277.144531 726.214844 279.132812 C 726.300781 281.113281 724.464844 282.800781 722.546875 282.800781 Z M 722.546875 282.800781 " fill-opacity="1" fill-rule="nonzero"/></g><path fill="#201b2c" d="M 726.214844 289.339844 L 726.214844 314.289062 C 726.214844 316.34375 724.53125 317.867188 722.546875 317.957031 C 720.566406 318.042969 718.878906 316.207031 718.878906 314.289062 L 718.878906 289.339844 C 718.878906 287.28125 720.558594 285.761719 722.546875 285.671875 C 724.527344 285.582031 726.214844 287.421875 726.214844 289.339844 Z M 722.546875 275.464844 C 720.628906 275.464844 718.789062 277.152344 718.878906 279.132812 C 718.96875 281.121094 720.488281 282.800781 722.546875 282.800781 C 724.464844 282.800781 726.300781 281.113281 726.214844 279.132812 C 726.125 277.144531 724.601562 275.464844 722.546875 275.464844 Z M 722.546875 275.464844 " fill-opacity="1" fill-rule="nonzero"/><g clip-path="url(#469013d196)"><path fill="#201b2c" d="M 868.765625 255.316406 L 759.023438 255.316406 L 759.023438 292.46875 L 773.105469 306.554688 L 792.0625 306.554688 L 792.0625 371.425781 L 806.148438 385.507812 L 849.808594 385.507812 L 849.808594 306.554688 L 882.847656 306.554688 L 882.847656 269.398438 Z M 868.765625 255.316406 " fill-opacity="1" fill-rule="nonzero"/></g><path fill="#77ffc0" d="M 764.65625 260.949219 L 863.132812 260.949219 L 863.132812 286.835938 L 830.089844 286.835938 L 830.089844 365.789062 L 797.695312 365.789062 L 797.695312 286.835938 L 764.65625 286.835938 Z M 764.65625 260.949219 " fill-opacity="1" fill-rule="nonzero"/><g clip-path="url(#e6347b4320)"><path fill="#201b2c" d="M 1035.226562 255.316406 L 985.707031 255.316406 L 970.582031 280.582031 L 963.90625 269.398438 L 949.820312 255.316406 L 900.078125 255.316406 L 945.820312 323.59375 L 945.820312 371.425781 L 959.90625 385.507812 L 1003.652344 385.507812 L 1003.652344 337.679688 L 1049.3125 269.398438 Z M 1035.226562 255.316406 " fill-opacity="1" fill-rule="nonzero"/></g><path fill="#77ffc0" d="M 910.640625 260.949219 L 946.609375 260.949219 L 967.738281 296.300781 L 988.890625 260.949219 L 1024.691406 260.949219 L 983.933594 321.875 L 983.933594 365.789062 L 951.457031 365.789062 L 951.457031 321.875 Z M 910.640625 260.949219 " fill-opacity="1" fill-rule="nonzero"/><g clip-path="url(#f0da35f1c0)"><path fill="#77ffc0" d="M 576.027344 490.953125 C 582.171875 485.777344 585.835938 477.613281 585.835938 468.234375 C 585.835938 456.902344 582.144531 448.222656 574.820312 442.222656 L 574.828125 442.21875 L 564.324219 433.355469 C 556.253906 425.976562 543.214844 422.25 525.265625 422.25 L 477.820312 422.25 C 475.085938 422.25 472.859375 424.472656 472.859375 427.210938 L 472.859375 539.351562 C 472.859375 540.734375 473.429688 541.988281 474.347656 542.886719 L 474.339844 542.890625 L 474.453125 542.984375 C 474.566406 543.089844 474.683594 543.191406 474.808594 543.285156 L 485.96875 552.714844 C 486.21875 552.976562 486.496094 553.210938 486.796875 553.414062 L 486.800781 553.417969 L 486.800781 553.414062 C 487.589844 553.941406 488.535156 554.25 489.550781 554.25 L 545.023438 554.25 C 556.84375 554.25 567.675781 551.5625 575.53125 546.675781 C 585.679688 540.375 591.039062 530.582031 591.039062 518.351562 C 591.039062 506.464844 585.777344 496.980469 576.027344 490.953125 Z M 527.328125 467.042969 C 527.328125 465.480469 528.59375 464.214844 530.15625 464.214844 C 530.671875 464.214844 531.199219 464.210938 531.734375 464.207031 C 531.164062 466.925781 529.5 468.449219 527.328125 469.292969 Z M 527.328125 506.757812 C 527.328125 505.195312 528.59375 503.929688 530.15625 503.929688 L 531.347656 503.929688 C 532.921875 503.929688 534.71875 503.921875 536.542969 504.039062 C 536.167969 509.589844 531.988281 511.535156 527.328125 512.214844 Z M 527.328125 506.757812 " fill-opacity="1" fill-rule="nonzero"/></g><g clip-path="url(#12277aa417)"><path fill="#201b2c" d="M 591.039062 518.351562 C 591.039062 530.582031 585.679688 540.375 575.53125 546.675781 C 567.675781 551.5625 556.84375 554.25 545.023438 554.25 L 489.550781 554.25 C 488.535156 554.25 487.585938 553.941406 486.800781 553.414062 L 486.800781 553.417969 L 486.796875 553.414062 C 486.496094 553.210938 486.21875 552.976562 485.96875 552.714844 L 474.808594 543.285156 C 475.644531 543.925781 476.6875 544.3125 477.820312 544.3125 L 533.296875 544.3125 C 545.113281 544.3125 555.945312 541.625 563.804688 536.738281 C 573.949219 530.4375 579.308594 520.644531 579.308594 508.414062 C 579.308594 496.53125 574.050781 487.042969 564.300781 481.015625 C 570.445312 475.839844 574.109375 467.675781 574.109375 458.296875 C 574.109375 447.625 570.828125 439.304688 564.324219 433.355469 L 574.828125 442.21875 L 574.820312 442.222656 C 582.144531 448.226562 585.835938 456.90625 585.835938 468.234375 C 585.835938 477.613281 582.171875 485.777344 576.027344 490.953125 C 585.777344 496.980469 591.039062 506.464844 591.039062 518.351562 Z M 518.425781 454.277344 C 516.863281 454.277344 515.597656 455.546875 515.597656 457.109375 L 515.597656 467.511719 C 515.597656 469.074219 516.863281 470.339844 518.425781 470.339844 L 519.320312 470.339844 C 522.078125 470.339844 524.988281 470.199219 527.328125 469.292969 L 527.328125 467.042969 C 527.328125 465.480469 528.59375 464.214844 530.15625 464.214844 C 530.671875 464.214844 531.199219 464.210938 531.734375 464.207031 C 531.875 463.542969 531.964844 462.824219 531.964844 462.011719 C 531.964844 453.683594 524.371094 454.277344 518.425781 454.277344 Z M 527.328125 506.757812 C 527.328125 505.195312 528.59375 503.929688 530.15625 503.929688 L 531.347656 503.929688 C 532.921875 503.929688 534.71875 503.921875 536.542969 504.039062 C 536.5625 503.769531 536.570312 503.496094 536.570312 503.210938 C 536.570312 493.84375 526.160156 493.992188 519.617188 493.992188 L 518.425781 493.992188 C 516.863281 493.992188 515.597656 495.257812 515.597656 496.820312 L 515.597656 509.753906 C 515.597656 511.316406 516.863281 512.582031 518.425781 512.582031 L 520.214844 512.582031 C 522.414062 512.582031 524.933594 512.5625 527.328125 512.214844 Z M 474.339844 542.890625 L 474.453125 542.984375 C 474.417969 542.949219 474.378906 542.921875 474.347656 542.886719 Z M 474.339844 542.890625 " fill-opacity="1" fill-rule="nonzero"/></g><g clip-path="url(#52f91d6cbf)"><path fill="#77ffc0" d="M 561.449219 484.570312 C 561.375 484.511719 561.367188 484.496094 561.449219 484.570312 Z M 477.820312 544.3125 C 476.6875 544.3125 475.644531 543.925781 474.808594 543.285156 C 474.683594 543.191406 474.566406 543.089844 474.453125 542.984375 C 474.417969 542.953125 474.378906 542.921875 474.347656 542.886719 C 473.429688 541.988281 472.859375 540.734375 472.859375 539.351562 L 472.859375 427.210938 C 472.859375 424.472656 475.085938 422.25 477.820312 422.25 L 525.265625 422.25 C 543.214844 422.25 556.253906 425.976562 564.324219 433.355469 C 570.828125 439.304688 574.109375 447.625 574.109375 458.296875 C 574.109375 467.675781 570.445312 475.839844 564.300781 481.015625 C 574.050781 487.042969 579.308594 496.53125 579.308594 508.414062 C 579.308594 520.644531 573.949219 530.4375 563.804688 536.738281 C 555.945312 541.625 545.113281 544.3125 533.296875 544.3125 Z M 531.964844 462.011719 C 531.964844 453.683594 524.371094 454.277344 518.425781 454.277344 C 516.863281 454.277344 515.597656 455.546875 515.597656 457.109375 L 515.597656 467.511719 C 515.597656 469.074219 516.863281 470.339844 518.425781 470.339844 L 519.320312 470.339844 C 522.078125 470.339844 524.988281 470.199219 527.328125 469.292969 C 529.5 468.449219 531.164062 466.925781 531.734375 464.207031 C 531.875 463.542969 531.964844 462.824219 531.964844 462.011719 Z M 520.214844 512.582031 C 522.414062 512.582031 524.933594 512.5625 527.328125 512.214844 C 531.988281 511.535156 536.167969 509.589844 536.542969 504.039062 C 536.5625 503.769531 536.570312 503.496094 536.570312 503.210938 C 536.570312 493.84375 526.160156 493.992188 519.617188 493.992188 L 518.425781 493.992188 C 516.863281 493.992188 515.597656 495.257812 515.597656 496.820312 L 515.597656 509.753906 C 515.597656 511.316406 516.863281 512.582031 518.425781 512.582031 Z M 565.253906 463.496094 C 563.109375 463.007812 561.445312 464.152344 560.675781 466.097656 C 560.636719 466.195312 560.613281 466.261719 560.589844 466.316406 C 560.570312 466.363281 560.542969 466.414062 560.511719 466.480469 C 560.363281 466.789062 560.21875 467.097656 560.058594 467.402344 C 559.769531 467.949219 559.457031 468.480469 559.117188 468.996094 C 558.933594 469.277344 558.734375 469.542969 558.546875 469.820312 C 558.53125 469.839844 558.527344 469.851562 558.519531 469.863281 C 558.492188 469.894531 558.460938 469.925781 558.414062 469.976562 C 557.976562 470.464844 557.546875 470.953125 557.070312 471.40625 C 554.972656 473.394531 553.171875 475.503906 552.59375 478.445312 C 552.007812 481.425781 552.421875 484.558594 554.015625 487.183594 C 554.691406 488.300781 555.558594 489.332031 556.570312 490.160156 C 557.261719 490.722656 557.988281 491.195312 558.730469 491.683594 C 559.050781 491.890625 559.359375 492.117188 559.679688 492.332031 C 559.796875 492.414062 559.851562 492.449219 559.882812 492.472656 C 559.910156 492.496094 559.972656 492.546875 560.121094 492.664062 C 561.636719 493.878906 563.921875 494.257812 565.382812 492.664062 C 566.621094 491.316406 567.007812 488.699219 565.382812 487.402344 C 564.191406 486.449219 562.972656 485.589844 561.699219 484.753906 C 561.617188 484.699219 561.542969 484.644531 561.488281 484.601562 C 561.304688 484.433594 561.117188 484.273438 560.945312 484.089844 C 560.90625 484.050781 560.75 483.859375 560.652344 483.742188 C 560.566406 483.617188 560.464844 483.464844 560.441406 483.425781 C 560.3125 483.214844 560.214844 482.984375 560.085938 482.773438 C 560.082031 482.765625 560.082031 482.765625 560.078125 482.761719 C 560.074219 482.738281 560.070312 482.726562 560.0625 482.699219 C 559.976562 482.410156 559.898438 482.121094 559.816406 481.832031 C 559.804688 481.78125 559.796875 481.757812 559.785156 481.726562 C 559.777344 481.480469 559.75 481.234375 559.75 480.988281 C 559.75 480.949219 559.753906 480.804688 559.757812 480.664062 C 559.78125 480.53125 559.820312 480.1875 559.835938 480.117188 C 559.90625 479.816406 560.003906 479.523438 560.097656 479.226562 C 560.109375 479.199219 560.109375 479.191406 560.117188 479.167969 C 560.128906 479.15625 560.136719 479.148438 560.15625 479.125 C 560.296875 478.917969 560.414062 478.671875 560.539062 478.449219 C 560.570312 478.390625 560.585938 478.359375 560.609375 478.320312 C 560.785156 478.128906 560.949219 477.929688 561.132812 477.75 C 561.953125 476.949219 562.824219 476.238281 563.570312 475.363281 C 565.457031 473.160156 566.789062 470.765625 567.855469 468.078125 C 568.570312 466.261719 567.070312 463.910156 565.253906 463.496094 Z M 569.546875 457.300781 C 569.457031 455.28125 567.914062 453.578125 565.828125 453.578125 C 563.878906 453.578125 562.015625 455.289062 562.105469 457.300781 C 562.195312 459.316406 563.742188 461.019531 565.828125 461.019531 C 567.773438 461.019531 569.636719 459.308594 569.546875 457.300781 Z M 569.546875 457.300781 " fill-opacity="1" fill-rule="nonzero"/></g><path fill="#201b2c" d="M 565.253906 463.496094 C 563.109375 463.007812 561.445312 464.152344 560.675781 466.097656 C 560.636719 466.195312 560.613281 466.261719 560.589844 466.316406 C 560.570312 466.363281 560.542969 466.414062 560.511719 466.480469 C 560.363281 466.789062 560.21875 467.097656 560.058594 467.402344 C 559.769531 467.949219 559.457031 468.480469 559.117188 468.996094 C 558.933594 469.277344 558.734375 469.542969 558.546875 469.820312 C 558.53125 469.839844 558.527344 469.851562 558.519531 469.863281 C 558.492188 469.894531 558.460938 469.925781 558.414062 469.976562 C 557.976562 470.464844 557.546875 470.953125 557.070312 471.40625 C 554.972656 473.394531 553.171875 475.503906 552.59375 478.445312 C 552.007812 481.425781 552.421875 484.558594 554.015625 487.183594 C 554.691406 488.300781 555.558594 489.332031 556.570312 490.160156 C 557.261719 490.722656 557.988281 491.195312 558.730469 491.683594 C 559.050781 491.890625 559.359375 492.117188 559.679688 492.332031 C 559.796875 492.414062 559.851562 492.449219 559.882812 492.472656 C 559.910156 492.496094 559.972656 492.546875 560.121094 492.664062 C 561.636719 493.878906 563.921875 494.257812 565.382812 492.664062 C 566.621094 491.316406 567.007812 488.699219 565.382812 487.402344 C 564.191406 486.449219 562.972656 485.589844 561.699219 484.753906 C 561.617188 484.699219 561.542969 484.644531 561.488281 484.601562 C 561.304688 484.433594 561.117188 484.273438 560.945312 484.089844 C 560.90625 484.050781 560.75 483.859375 560.652344 483.742188 C 560.566406 483.617188 560.464844 483.464844 560.441406 483.425781 C 560.3125 483.214844 560.214844 482.984375 560.085938 482.773438 C 560.082031 482.765625 560.082031 482.765625 560.078125 482.761719 C 560.074219 482.738281 560.070312 482.726562 560.0625 482.699219 C 559.976562 482.410156 559.898438 482.121094 559.816406 481.832031 C 559.804688 481.78125 559.796875 481.757812 559.785156 481.726562 C 559.777344 481.480469 559.75 481.234375 559.75 480.988281 C 559.75 480.949219 559.753906 480.804688 559.757812 480.664062 C 559.78125 480.53125 559.820312 480.1875 559.835938 480.117188 C 559.90625 479.816406 560.003906 479.523438 560.097656 479.226562 C 560.109375 479.199219 560.109375 479.191406 560.117188 479.167969 C 560.128906 479.15625 560.136719 479.148438 560.15625 479.125 C 560.296875 478.917969 560.414062 478.671875 560.539062 478.449219 C 560.570312 478.390625 560.585938 478.359375 560.609375 478.320312 C 560.785156 478.128906 560.949219 477.929688 561.132812 477.75 C 561.953125 476.949219 562.824219 476.238281 563.570312 475.363281 C 565.457031 473.160156 566.789062 470.765625 567.855469 468.078125 C 568.570312 466.261719 567.070312 463.910156 565.253906 463.496094 Z M 561.449219 484.570312 C 561.375 484.511719 561.367188 484.496094 561.449219 484.570312 Z M 569.546875 457.300781 C 569.636719 459.308594 567.773438 461.019531 565.828125 461.019531 C 563.742188 461.019531 562.195312 459.316406 562.105469 457.300781 C 562.015625 455.289062 563.878906 453.578125 565.828125 453.578125 C 567.914062 453.578125 569.457031 455.28125 569.546875 457.300781 Z M 569.546875 457.300781 " fill-opacity="1" fill-rule="nonzero"/><g clip-path="url(#878ed41f3c)"><path fill="#77ffc0" d="M 753.320312 547.625 L 713.316406 435.480469 C 713 434.59375 712.441406 433.851562 711.742188 433.292969 L 711.742188 433.273438 L 700.132812 423.4375 L 700.125 423.449219 C 699.246094 422.699219 698.121094 422.25 696.90625 422.25 L 651.84375 422.25 C 649.734375 422.25 647.847656 423.589844 647.160156 425.582031 L 608.191406 537.726562 C 607.664062 539.242188 607.902344 540.917969 608.835938 542.234375 C 609.027344 542.503906 609.25 542.746094 609.488281 542.972656 L 609.484375 542.976562 L 609.5625 543.042969 C 609.621094 543.097656 609.683594 543.144531 609.742188 543.195312 L 621.234375 552.933594 L 621.238281 552.925781 C 622.144531 553.769531 623.34375 554.253906 624.609375 554.253906 L 667.738281 554.253906 C 670.046875 554.253906 672.046875 552.667969 672.570312 550.425781 L 674.941406 540.269531 L 688.898438 540.269531 L 688.992188 540.628906 C 689.226562 541.515625 689.703125 542.285156 690.324219 542.890625 C 690.320312 542.894531 690.300781 542.898438 690.300781 542.898438 L 702.410156 553.160156 L 702.417969 553.15625 C 703.277344 553.847656 704.359375 554.253906 705.519531 554.253906 L 748.648438 554.253906 C 750.261719 554.253906 751.773438 553.46875 752.707031 552.148438 C 753.632812 550.832031 753.867188 549.144531 753.320312 547.625 Z M 682.929688 498.75 L 680.460938 498.75 L 681.632812 493.359375 Z M 682.929688 498.75 " fill-opacity="1" fill-rule="nonzero"/></g><g clip-path="url(#129064d3df)"><path fill="#201b2c" d="M 686.253906 530.332031 L 688.898438 540.269531 L 674.941406 540.269531 L 672.570312 550.425781 C 672.046875 552.667969 670.046875 554.253906 667.738281 554.253906 L 624.609375 554.253906 C 623.34375 554.253906 622.144531 553.769531 621.238281 552.925781 L 621.234375 552.933594 L 609.742188 543.195312 C 610.617188 543.910156 611.71875 544.320312 612.882812 544.320312 L 656.011719 544.320312 C 658.316406 544.320312 660.320312 542.730469 660.839844 540.488281 L 663.214844 530.332031 Z M 681.632812 493.359375 L 678.167969 478.96875 C 677.878906 477.804688 677.617188 476.632812 677.375 475.457031 C 677.285156 475.035156 677.210938 474.605469 677.128906 474.179688 C 676.980469 473.425781 676.832031 472.667969 676.695312 471.910156 C 676.601562 471.382812 676.515625 470.859375 676.429688 470.335938 C 676.316406 469.660156 676.199219 468.988281 676.089844 468.316406 C 675.976562 467.605469 675.867188 466.898438 675.753906 466.191406 C 675.707031 465.894531 675.660156 465.59375 675.613281 465.300781 C 675.546875 464.863281 675.167969 464.542969 674.726562 464.542969 C 674.308594 464.542969 673.941406 464.835938 673.851562 465.25 L 666.570312 498.75 L 680.460938 498.75 Z M 753.320312 547.625 L 713.316406 435.480469 C 713 434.59375 712.441406 433.851562 711.742188 433.292969 L 711.742188 433.273438 L 700.132812 423.4375 L 700.125 423.449219 C 700.769531 424 701.289062 424.707031 701.585938 425.542969 L 741.589844 537.6875 C 742.136719 539.207031 741.90625 540.894531 740.980469 542.210938 C 740.042969 543.53125 738.53125 544.320312 736.917969 544.320312 L 693.789062 544.320312 C 692.457031 544.320312 691.230469 543.777344 690.324219 542.890625 C 690.320312 542.894531 690.300781 542.898438 690.300781 542.898438 L 702.410156 553.160156 L 702.417969 553.15625 C 703.277344 553.847656 704.355469 554.253906 705.519531 554.253906 L 748.648438 554.253906 C 750.261719 554.253906 751.773438 553.46875 752.707031 552.148438 C 753.632812 550.832031 753.867188 549.144531 753.320312 547.625 Z M 609.484375 542.976562 L 609.5625 543.042969 C 609.539062 543.019531 609.515625 542.996094 609.488281 542.96875 Z M 609.484375 542.976562 " fill-opacity="1" fill-rule="nonzero"/></g><g clip-path="url(#d9422d7190)"><path fill="#77ffc0" d="M 736.917969 544.320312 C 738.53125 544.320312 740.042969 543.53125 740.980469 542.210938 C 741.90625 540.894531 742.136719 539.207031 741.589844 537.6875 L 701.585938 425.542969 C 701.289062 424.707031 700.769531 424 700.125 423.449219 C 699.246094 422.699219 698.121094 422.25 696.90625 422.25 L 651.84375 422.25 C 649.734375 422.25 647.847656 423.589844 647.160156 425.582031 L 608.191406 537.726562 C 607.664062 539.242188 607.902344 540.917969 608.835938 542.234375 C 609.027344 542.503906 609.25 542.746094 609.488281 542.972656 C 609.515625 542.996094 609.539062 543.019531 609.5625 543.042969 C 609.621094 543.097656 609.683594 543.144531 609.742188 543.195312 C 610.617188 543.910156 611.71875 544.320312 612.882812 544.320312 L 656.011719 544.320312 C 658.316406 544.320312 660.320312 542.730469 660.839844 540.488281 L 663.214844 530.332031 L 686.253906 530.332031 L 688.898438 540.269531 L 688.992188 540.628906 C 689.226562 541.515625 689.703125 542.285156 690.324219 542.894531 C 691.230469 543.777344 692.457031 544.320312 693.789062 544.320312 Z M 702.144531 448 C 704.230469 448 705.777344 449.703125 705.867188 451.71875 C 705.957031 453.730469 704.09375 455.441406 702.144531 455.441406 C 700.058594 455.441406 698.515625 453.738281 698.421875 451.71875 C 698.332031 449.710938 700.199219 448 702.144531 448 Z M 709.09375 460.15625 C 709.503906 461.304688 709.914062 462.449219 710.324219 463.597656 C 713.199219 471.664062 716.078125 479.730469 718.953125 487.792969 C 719.65625 489.757812 718.15625 491.789062 716.355469 492.371094 C 714.34375 493.023438 712.429688 491.601562 711.777344 489.773438 C 711.367188 488.625 710.957031 487.476562 710.550781 486.328125 C 707.671875 478.265625 704.796875 470.199219 701.917969 462.132812 C 701.21875 460.171875 702.714844 458.140625 704.519531 457.554688 C 706.527344 456.90625 708.441406 458.324219 709.09375 460.15625 Z M 673.851562 465.25 C 673.941406 464.835938 674.308594 464.542969 674.726562 464.542969 C 675.167969 464.542969 675.546875 464.863281 675.613281 465.300781 C 675.660156 465.59375 675.707031 465.894531 675.753906 466.191406 C 675.867188 466.898438 675.976562 467.605469 676.089844 468.316406 C 676.199219 468.988281 676.316406 469.660156 676.429688 470.335938 C 676.515625 470.859375 676.601562 471.382812 676.695312 471.910156 C 676.828125 472.667969 676.980469 473.425781 677.128906 474.179688 C 677.210938 474.605469 677.285156 475.035156 677.375 475.457031 C 677.617188 476.632812 677.878906 477.804688 678.167969 478.96875 L 681.632812 493.359375 L 682.929688 498.75 L 666.570312 498.75 Z M 673.851562 465.25 " fill-opacity="1" fill-rule="nonzero"/></g><path fill="#201b2c" d="M 709.09375 460.15625 C 709.503906 461.304688 709.914062 462.449219 710.324219 463.597656 C 713.199219 471.664062 716.078125 479.730469 718.953125 487.792969 C 719.65625 489.757812 718.15625 491.789062 716.355469 492.371094 C 714.34375 493.023438 712.429688 491.601562 711.777344 489.773438 C 711.367188 488.625 710.957031 487.476562 710.550781 486.328125 C 707.671875 478.265625 704.796875 470.199219 701.917969 462.132812 C 701.21875 460.171875 702.714844 458.140625 704.519531 457.554688 C 706.527344 456.90625 708.441406 458.324219 709.09375 460.15625 Z M 702.144531 455.441406 C 704.09375 455.441406 705.957031 453.730469 705.867188 451.71875 C 705.777344 449.703125 704.230469 448 702.144531 448 C 700.199219 448 698.332031 449.710938 698.421875 451.71875 C 698.515625 453.738281 700.058594 455.441406 702.144531 455.441406 Z M 702.144531 455.441406 " fill-opacity="1" fill-rule="nonzero"/><g clip-path="url(#48c4dc83bb)"><path fill="#77ffc0" d="M 904.578125 437.148438 L 904.578125 549.289062 C 904.578125 552.03125 902.355469 554.253906 899.617188 554.253906 L 860.648438 554.253906 C 859.445312 554.253906 858.308594 553.808594 857.421875 553.046875 L 857.421875 553.058594 L 846.132812 543.460938 L 846.140625 543.453125 C 845.558594 543.058594 845.058594 542.550781 844.679688 541.933594 L 831.105469 519.625 L 831.105469 549.289062 C 831.105469 552.03125 828.882812 554.253906 826.144531 554.253906 L 787.175781 554.253906 C 785.851562 554.253906 784.652344 553.730469 783.761719 552.882812 L 783.761719 552.886719 L 772.300781 543.191406 L 772.300781 543.1875 C 771.191406 542.277344 770.484375 540.898438 770.484375 539.355469 L 770.484375 427.210938 C 770.484375 424.472656 772.707031 422.25 775.449219 422.25 L 814.5625 422.25 C 815.738281 422.25 816.847656 422.671875 817.726562 423.398438 L 817.730469 423.390625 L 829.128906 433.082031 L 829.125 433.085938 C 829.699219 433.488281 830.199219 434.003906 830.566406 434.632812 L 843.957031 457.382812 L 843.957031 427.210938 C 843.957031 424.472656 846.179688 422.25 848.921875 422.25 L 887.886719 422.25 C 889.117188 422.25 890.238281 422.699219 891.105469 423.441406 L 891.105469 423.4375 L 902.753906 433.304688 C 902.769531 433.320312 902.785156 433.332031 902.800781 433.347656 L 902.839844 433.378906 L 902.835938 433.378906 C 903.902344 434.289062 904.578125 435.636719 904.578125 437.148438 Z M 904.578125 437.148438 " fill-opacity="1" fill-rule="nonzero"/></g><g clip-path="url(#af4e385d7a)"><path fill="#201b2c" d="M 904.578125 437.148438 L 904.578125 549.289062 C 904.578125 552.03125 902.355469 554.253906 899.617188 554.253906 L 860.648438 554.253906 C 859.445312 554.253906 858.308594 553.808594 857.421875 553.046875 L 857.421875 553.058594 L 846.132812 543.460938 L 846.140625 543.453125 C 846.949219 544 847.910156 544.316406 848.921875 544.316406 L 887.886719 544.316406 C 890.628906 544.316406 892.847656 542.09375 892.847656 539.355469 L 892.847656 427.210938 C 892.847656 425.699219 892.171875 424.347656 891.105469 423.4375 L 902.753906 433.304688 C 902.769531 433.320312 902.785156 433.332031 902.800781 433.347656 L 902.835938 433.375 L 902.835938 433.378906 C 903.902344 434.289062 904.578125 435.636719 904.578125 437.148438 Z M 819.375 502.914062 L 819.375 539.355469 C 819.375 542.09375 817.15625 544.316406 814.414062 544.316406 L 775.449219 544.316406 C 774.253906 544.316406 773.15625 543.890625 772.300781 543.1875 L 772.300781 543.191406 L 783.761719 552.886719 L 783.761719 552.882812 C 784.652344 553.730469 785.851562 554.253906 787.175781 554.253906 L 826.144531 554.253906 C 828.882812 554.253906 831.105469 552.03125 831.105469 549.289062 L 831.105469 519.628906 L 819.332031 500.28125 C 819.363281 501.15625 819.375 502.035156 819.375 502.914062 Z M 818.839844 424.695312 L 844.234375 467.847656 C 844.058594 465.511719 843.957031 463.171875 843.957031 460.824219 L 843.957031 457.382812 L 830.570312 434.632812 C 830.199219 434.003906 829.699219 433.488281 829.125 433.085938 L 829.128906 433.082031 L 817.730469 423.390625 L 817.726562 423.398438 C 818.160156 423.761719 818.542969 424.191406 818.839844 424.695312 Z M 818.839844 424.695312 " fill-opacity="1" fill-rule="nonzero"/></g><g clip-path="url(#4baf933cd6)"><path fill="#77ffc0" d="M 887.886719 544.316406 C 890.625 544.316406 892.847656 542.09375 892.847656 539.355469 L 892.847656 427.210938 C 892.847656 425.699219 892.171875 424.347656 891.105469 423.4375 C 890.238281 422.699219 889.117188 422.25 887.886719 422.25 L 848.917969 422.25 C 846.179688 422.25 843.957031 424.472656 843.957031 427.210938 L 843.957031 460.824219 C 843.957031 463.167969 844.058594 465.511719 844.234375 467.847656 L 818.839844 424.695312 C 818.542969 424.191406 818.160156 423.761719 817.726562 423.398438 C 816.847656 422.671875 815.738281 422.25 814.5625 422.25 L 775.449219 422.25 C 772.707031 422.25 770.484375 424.472656 770.484375 427.210938 L 770.484375 539.355469 C 770.484375 540.898438 771.191406 542.277344 772.300781 543.1875 C 773.15625 543.890625 774.253906 544.316406 775.449219 544.316406 L 814.414062 544.316406 C 817.15625 544.316406 819.375 542.09375 819.375 539.355469 L 819.375 502.914062 C 819.375 502.035156 819.359375 501.15625 819.332031 500.28125 L 831.105469 519.628906 L 844.679688 541.933594 C 845.054688 542.550781 845.558594 543.058594 846.136719 543.453125 C 846.949219 544 847.910156 544.316406 848.917969 544.316406 Z M 888.300781 507.992188 C 888.300781 510.078125 886.59375 511.621094 884.578125 511.710938 C 882.570312 511.804688 880.855469 509.9375 880.855469 507.992188 L 880.855469 484.863281 C 880.855469 482.777344 882.5625 481.230469 884.578125 481.140625 C 886.589844 481.050781 888.300781 482.917969 888.300781 484.863281 Z M 884.578125 477.804688 C 882.492188 477.804688 880.949219 476.101562 880.855469 474.082031 C 880.765625 472.074219 882.632812 470.363281 884.578125 470.363281 C 886.664062 470.363281 888.210938 472.066406 888.300781 474.082031 C 888.390625 476.09375 886.527344 477.804688 884.578125 477.804688 Z M 884.578125 477.804688 " fill-opacity="1" fill-rule="nonzero"/></g><path fill="#201b2c" d="M 888.300781 484.863281 L 888.300781 507.992188 C 888.300781 510.078125 886.59375 511.621094 884.578125 511.714844 C 882.570312 511.804688 880.855469 509.9375 880.855469 507.992188 L 880.855469 484.863281 C 880.855469 482.777344 882.5625 481.230469 884.578125 481.140625 C 886.589844 481.050781 888.300781 482.917969 888.300781 484.863281 Z M 884.578125 470.363281 C 882.632812 470.363281 880.765625 472.074219 880.855469 474.082031 C 880.949219 476.101562 882.492188 477.804688 884.578125 477.804688 C 886.523438 477.804688 888.390625 476.09375 888.300781 474.082031 C 888.210938 472.066406 886.664062 470.363281 884.578125 470.363281 Z M 884.578125 470.363281 " fill-opacity="1" fill-rule="nonzero"/><g clip-path="url(#688ddb7d6d)"><path fill="#201b2c" d="M 931.617188 428.273438 C 927.269531 428.832031 923.644531 430.839844 922.195312 433.457031 C 921.195312 435.355469 921.136719 435.855469 921.808594 443.214844 C 922.195312 447.449219 922.808594 454.195312 923.257812 458.152344 C 925.039062 474.539062 925.542969 493.210938 924.707031 517.070312 C 923.703125 547.167969 923.703125 546.167969 925.039062 548.003906 C 928.160156 552.1875 935.628906 554.25 943.824219 553.191406 C 948.285156 552.632812 950.066406 551.574219 951.851562 548.394531 C 952.910156 546.554688 953.132812 545.386719 953.132812 540.648438 C 953.132812 537.582031 953.300781 529.609375 953.523438 522.867188 L 953.859375 510.660156 L 956.085938 508.09375 C 957.3125 506.703125 958.59375 505.53125 958.929688 505.53125 C 960.546875 505.53125 977.4375 530.78125 983.566406 542.265625 C 988.359375 551.351562 990.925781 553.023438 998.671875 552.074219 C 1000.957031 551.796875 1006.253906 551.238281 1010.433594 550.902344 C 1019.910156 550.179688 1021.804688 549.289062 1023.3125 544.882812 C 1024.257812 541.984375 1023.253906 539.367188 1019.296875 534.40625 C 1012.886719 526.488281 1000.847656 510.101562 984.683594 487.527344 L 979.777344 480.671875 L 984.179688 475.820312 C 986.578125 473.203125 993.320312 465.84375 999.117188 459.546875 C 1004.972656 453.246094 1010.433594 447.171875 1011.328125 446.054688 C 1013.390625 443.324219 1014.558594 439.199219 1014.113281 436.46875 C 1013.277344 431.453125 1006.308594 427.328125 999.507812 427.882812 C 995.996094 428.21875 996.609375 427.660156 984.683594 441.152344 C 981.058594 445.277344 972.53125 454.585938 965.730469 461.773438 L 953.410156 474.929688 L 952.964844 470.414062 C 952.6875 467.683594 952.796875 461.105469 953.246094 453.414062 C 954.191406 436.46875 954.191406 435.074219 952.6875 432.679688 C 950.734375 429.558594 947.726562 428.386719 940.8125 428.105469 C 937.636719 427.941406 933.511719 428.050781 931.617188 428.273438 Z M 931.617188 428.273438 " fill-opacity="1" fill-rule="nonzero"/></g><path fill="#77ffc0" d="M 940.410156 426.507812 C 936.0625 427.0625 932.441406 429.070312 930.992188 431.691406 C 929.988281 433.585938 929.933594 434.085938 930.601562 441.445312 C 930.992188 445.683594 931.605469 452.371094 932.050781 456.382812 C 934.167969 475.78125 934.558594 514.1875 932.886719 534.8125 C 932.050781 545.125 932.71875 546.796875 938.796875 549.972656 C 943.476562 552.371094 954.679688 552.3125 957.96875 549.859375 C 960.925781 547.6875 961.925781 545.011719 961.925781 538.878906 C 961.925781 535.816406 962.09375 527.84375 962.316406 521.097656 L 962.652344 508.890625 L 964.882812 506.328125 C 966.109375 504.933594 967.390625 503.761719 967.722656 503.761719 C 969.339844 503.761719 986.230469 529.015625 992.363281 540.496094 C 997.15625 549.582031 999.71875 551.253906 1007.46875 550.308594 C 1009.753906 550.027344 1015.046875 549.472656 1019.230469 549.136719 C 1028.703125 548.410156 1030.601562 547.519531 1032.105469 543.117188 C 1033.050781 540.21875 1032.050781 537.597656 1028.035156 532.636719 C 1023.019531 526.394531 1009.976562 508.78125 998.492188 492.726562 L 988.628906 478.902344 L 993.253906 473.773438 C 995.816406 470.988281 1002.5625 463.628906 1008.25 457.441406 C 1013.933594 451.3125 1019.285156 445.347656 1020.121094 444.234375 C 1022.183594 441.558594 1023.355469 437.433594 1022.90625 434.699219 C 1022.070312 429.683594 1015.105469 425.558594 1008.304688 426.117188 C 1004.792969 426.453125 1005.40625 425.894531 993.476562 439.382812 C 989.855469 443.507812 981.324219 452.816406 974.523438 460.007812 L 962.207031 473.160156 L 961.761719 468.648438 C 961.480469 465.914062 961.59375 459.28125 962.039062 451.644531 C 962.988281 434.535156 962.929688 433.308594 961.480469 430.910156 C 959.53125 427.789062 956.519531 426.617188 949.609375 426.339844 C 946.433594 426.171875 942.308594 426.285156 940.410156 426.507812 Z M 940.410156 426.507812 " fill-opacity="1" fill-rule="nonzero"/><path fill="#201b2c" d="M 945.832031 426.601562 C 941.652344 427.214844 938.082031 429.222656 936.691406 431.785156 C 935.6875 433.679688 935.628906 434.183594 936.300781 441.820312 C 936.691406 446.167969 937.359375 452.910156 937.804688 456.757812 C 939.53125 472.53125 940.035156 492.097656 939.199219 515.621094 C 938.195312 545.441406 938.195312 544.492188 939.53125 546.332031 C 942.652344 550.515625 950.121094 552.578125 958.316406 551.515625 C 962.777344 550.960938 964.558594 549.902344 966.34375 546.722656 C 967.402344 544.882812 967.625 543.714844 967.625 538.976562 C 967.625 535.910156 967.792969 527.9375 968.015625 521.195312 L 968.351562 508.988281 L 970.578125 506.421875 C 971.804688 505.03125 973.089844 503.859375 973.421875 503.859375 C 975.039062 503.859375 991.929688 529.109375 998.058594 540.59375 C 1003.242188 550.402344 1004.972656 551.351562 1016.007812 550.125 C 1019.910156 549.679688 1025.261719 549.175781 1027.882812 549.007812 C 1033.789062 548.5625 1035.796875 547.503906 1037.355469 543.992188 C 1038.917969 540.535156 1038.136719 538.195312 1033.734375 532.734375 C 1028.773438 526.601562 1015.5625 508.765625 1005.527344 494.660156 C 1000.847656 488.085938 996.386719 481.898438 995.664062 480.894531 L 994.324219 479.109375 L 998.953125 473.925781 C 1001.460938 471.082031 1008.203125 463.726562 1013.890625 457.59375 C 1019.574219 451.460938 1024.925781 445.5 1025.820312 444.382812 C 1027.882812 441.652344 1029.050781 437.527344 1028.605469 434.796875 C 1027.769531 429.78125 1020.800781 425.65625 1014 426.210938 C 1010.488281 426.546875 1010.992188 426.101562 999.175781 439.476562 C 995.550781 443.601562 987.023438 452.910156 980.222656 460.101562 L 967.90625 473.257812 L 967.457031 468.742188 C 967.179688 466.011719 967.292969 459.378906 967.738281 451.742188 C 968.683594 434.628906 968.628906 433.402344 967.179688 431.007812 C 965.171875 427.828125 962.21875 426.65625 955.027344 426.378906 C 951.683594 426.269531 947.558594 426.378906 945.832031 426.601562 Z M 945.832031 426.601562 " fill-opacity="1" fill-rule="nonzero"/><g clip-path="url(#485d7d46c2)"><path fill="#77ffc0" d="M 978.636719 504.042969 C 978.628906 504.050781 978.625 504.054688 978.617188 504.0625 C 977.585938 504.980469 976.25 506.429688 975.519531 507.5 C 975.339844 509.34375 975.0625 516.71875 974.867188 525.214844 C 974.671875 533.519531 974.542969 537.992188 974.328125 540.632812 C 974.074219 543.675781 973.679688 544.601562 973.035156 545.734375 C 971.027344 549.292969 968.9375 550.597656 963.820312 551.25 C 954.921875 552.398438 946.875 549.945312 943.484375 545.402344 C 943.480469 545.398438 943.472656 545.394531 943.46875 545.386719 C 942.480469 544.03125 941.941406 543.960938 942.160156 534.472656 C 942.179688 533.546875 942.949219 532.816406 943.871094 532.839844 C 944.796875 532.855469 945.523438 533.625 945.503906 534.550781 C 945.425781 537.90625 945.425781 539.9375 945.507812 541.242188 C 945.597656 542.652344 945.792969 542.894531 946.175781 543.417969 C 949.035156 547.234375 955.914062 548.898438 963.394531 547.929688 C 967.085938 547.464844 968.675781 546.660156 970.125 544.089844 C 970.125 544.082031 970.125 544.082031 970.128906 544.078125 C 970.597656 543.257812 970.808594 542.566406 970.992188 540.359375 C 971.203125 537.75 971.328125 533.332031 971.523438 525.136719 C 971.699219 517.34375 971.953125 510.484375 972.136719 507.878906 C 972.203125 506.847656 972.371094 506.25 972.425781 506.144531 C 972.449219 506.101562 972.46875 506.058594 972.5 506.011719 C 973.535156 504.335938 976.15625 501.597656 977.449219 500.722656 C 978.511719 500.003906 979.4375 500.210938 979.804688 500.414062 C 979.832031 500.425781 979.855469 500.445312 979.882812 500.460938 C 980.046875 500.5625 980.363281 500.835938 980.765625 501.300781 C 981.734375 502.429688 983.785156 505.203125 986.1875 508.578125 C 986.722656 509.328125 986.550781 510.371094 985.796875 510.90625 C 985.046875 511.441406 984.003906 511.269531 983.460938 510.515625 C 981.628906 507.929688 979.632812 505.332031 978.636719 504.042969 Z M 990.652344 450.238281 C 991.277344 449.5625 992.335938 449.523438 993.011719 450.15625 C 993.691406 450.777344 993.730469 451.839844 993.101562 452.519531 C 990.941406 454.84375 988.757812 457.179688 986.730469 459.324219 L 974.414062 472.472656 C 973.964844 472.953125 973.277344 473.125 972.660156 472.914062 C 972.035156 472.703125 971.59375 472.148438 971.527344 471.492188 C 971.527344 471.492188 971.082031 466.976562 971.085938 466.984375 C 970.804688 464.210938 970.902344 457.527344 971.355469 449.71875 C 971.828125 441.320312 972.0625 436.777344 971.996094 434.035156 C 971.941406 431.75 971.671875 430.957031 971.054688 429.972656 C 969.289062 427.171875 966.59375 426.371094 960.257812 426.125 C 957.023438 426.011719 953.035156 426.117188 951.339844 426.332031 C 947.765625 426.859375 944.648438 428.460938 943.453125 430.65625 C 942.546875 432.363281 942.648438 432.839844 943.257812 439.742188 C 943.648438 444.078125 944.308594 450.808594 944.757812 454.636719 L 944.757812 454.648438 C 945.101562 457.742188 945.398438 461.050781 945.640625 464.550781 C 945.710938 465.472656 945.011719 466.269531 944.09375 466.335938 C 943.171875 466.402344 942.371094 465.707031 942.308594 464.785156 C 942.0625 461.335938 941.773438 458.070312 941.433594 455.019531 C 940.988281 451.164062 940.3125 444.402344 939.921875 440.042969 L 939.921875 440.039062 C 939.191406 431.6875 939.40625 431.148438 940.503906 429.078125 C 940.503906 429.074219 940.507812 429.066406 940.507812 429.0625 C 942.101562 426.136719 946.105469 423.722656 950.875 423.019531 C 950.886719 423.019531 950.898438 423.019531 950.910156 423.015625 C 952.6875 422.785156 956.929688 422.667969 960.375 422.78125 C 960.378906 422.78125 960.378906 422.78125 960.386719 422.78125 C 968.421875 423.09375 971.640625 424.628906 973.886719 428.1875 C 974.773438 429.597656 975.257812 430.699219 975.339844 433.949219 C 975.414062 436.738281 975.171875 441.363281 974.699219 449.910156 C 974.257812 457.484375 974.136719 463.957031 974.410156 466.648438 L 974.414062 466.652344 L 974.492188 467.496094 L 984.292969 457.03125 C 984.292969 457.03125 984.296875 457.027344 984.296875 457.027344 C 986.320312 454.886719 988.496094 452.5625 990.652344 450.238281 Z M 942.84375 474.679688 C 942.804688 473.753906 943.523438 472.980469 944.449219 472.941406 C 945.371094 472.90625 946.148438 473.625 946.183594 474.546875 C 946.433594 480.746094 946.546875 487.382812 946.527344 494.367188 C 946.527344 495.289062 945.777344 496.035156 944.855469 496.035156 C 943.929688 496.035156 943.183594 495.28125 943.183594 494.355469 C 943.199219 487.429688 943.089844 480.835938 942.84375 474.679688 Z M 943.078125 504.289062 C 943.09375 503.371094 943.859375 502.632812 944.785156 502.652344 C 945.703125 502.667969 946.4375 503.429688 946.421875 504.351562 C 946.359375 507.59375 946.273438 510.902344 946.160156 514.25 C 946.027344 518.125 945.910156 521.476562 945.816406 524.367188 C 945.78125 525.289062 945.007812 526.011719 944.085938 525.980469 C 943.160156 525.949219 942.4375 525.175781 942.46875 524.25 C 942.566406 521.359375 942.683594 518.011719 942.816406 514.140625 C 942.925781 510.804688 943.015625 507.515625 943.078125 504.289062 Z M 989.007812 518.46875 C 988.484375 517.707031 988.679688 516.664062 989.441406 516.144531 C 990.207031 515.621094 991.25 515.824219 991.769531 516.582031 C 993.824219 519.597656 995.746094 522.488281 997.128906 524.675781 C 997.128906 524.675781 997.128906 524.679688 997.136719 524.683594 C 999.714844 528.839844 1003.199219 534.792969 1004.832031 537.941406 C 1006.261719 540.632812 1007.410156 542.621094 1008.585938 544.066406 C 1009.167969 544.78125 1009.0625 545.832031 1008.351562 546.417969 C 1007.632812 547.003906 1006.578125 546.890625 1005.992188 546.179688 C 1004.710938 544.605469 1003.433594 542.445312 1001.875 539.507812 C 1001.875 539.5 1001.867188 539.496094 1001.867188 539.488281 C 1000.261719 536.398438 996.839844 530.542969 994.296875 526.453125 C 992.933594 524.296875 991.039062 521.441406 989.007812 518.46875 Z M 1013.644531 550.21875 C 1012.726562 550.140625 1012.046875 549.332031 1012.125 548.414062 C 1012.203125 547.496094 1013.015625 546.808594 1013.9375 546.890625 C 1015.785156 547.046875 1018.082031 546.875 1021.109375 546.535156 C 1025.035156 546.085938 1030.40625 545.582031 1033.117188 545.414062 C 1036.785156 545.125 1039.253906 544.382812 1040.574219 542.769531 C 1041.371094 541.792969 1041.679688 540.515625 1041.644531 538.925781 C 1041.621094 537.945312 1041.472656 537.25 1040.691406 535.960938 C 1039.703125 534.339844 1037.894531 531.980469 1034.585938 527.769531 C 1032.53125 525.148438 1029.414062 521.039062 1026.015625 516.476562 C 1025.460938 515.738281 1025.613281 514.6875 1026.355469 514.132812 C 1027.097656 513.582031 1028.144531 513.738281 1028.695312 514.480469 C 1032.078125 519.015625 1035.171875 523.097656 1037.21875 525.707031 C 1040.65625 530.074219 1042.523438 532.539062 1043.546875 534.222656 C 1044.769531 536.234375 1044.957031 537.320312 1044.988281 538.847656 C 1045.042969 541.363281 1044.421875 543.347656 1043.160156 544.886719 C 1041.398438 547.039062 1038.246094 548.371094 1033.355469 548.75 C 1033.351562 548.75 1033.339844 548.75 1033.332031 548.75 C 1030.675781 548.914062 1025.363281 549.417969 1021.488281 549.859375 L 1021.484375 549.859375 C 1018.175781 550.226562 1015.667969 550.398438 1013.644531 550.21875 Z M 1020.238281 503.019531 C 1020.785156 503.761719 1020.625 504.808594 1019.878906 505.355469 C 1019.128906 505.894531 1018.082031 505.734375 1017.542969 504.988281 C 1014.230469 500.453125 1011.238281 496.292969 1009.28125 493.464844 C 1007.386719 490.738281 1004.109375 486.183594 1002.050781 483.292969 L 998.210938 478.0625 C 997.738281 477.417969 997.789062 476.53125 998.328125 475.941406 C 998.328125 475.941406 1002.726562 471.152344 1002.726562 471.152344 C 1004.332031 469.363281 1007.871094 465.484375 1011.789062 461.214844 C 1012.414062 460.535156 1013.472656 460.488281 1014.152344 461.113281 C 1014.832031 461.738281 1014.878906 462.796875 1014.253906 463.476562 C 1010.339844 467.742188 1006.804688 471.609375 1005.207031 473.394531 C 1005.207031 473.398438 1005.199219 473.402344 1005.195312 473.410156 C 1005.195312 473.410156 1001.722656 477.1875 1001.722656 477.1875 L 1004.753906 481.320312 C 1004.761719 481.332031 1004.765625 481.335938 1004.765625 481.339844 C 1006.835938 484.246094 1010.128906 488.820312 1012.023438 491.558594 C 1013.976562 494.367188 1016.953125 498.507812 1020.238281 503.019531 Z M 1023.433594 453.492188 C 1022.808594 454.171875 1021.75 454.21875 1021.070312 453.59375 C 1020.390625 452.96875 1020.339844 451.910156 1020.964844 451.230469 C 1025.433594 446.351562 1029.160156 442.234375 1029.828125 441.34375 C 1029.832031 441.335938 1029.832031 441.332031 1029.839844 441.332031 C 1031.570312 439.0625 1032.632812 435.507812 1032.246094 433.140625 C 1031.972656 431.515625 1030.859375 430.039062 1029.324219 428.839844 C 1026.785156 426.855469 1023.082031 425.65625 1019.441406 425.953125 C 1018.625 426.03125 1018.078125 426.011719 1017.46875 426.292969 C 1016.824219 426.585938 1016.125 427.195312 1014.972656 428.371094 C 1013.148438 430.222656 1010.417969 433.34375 1005.71875 438.65625 C 1004.277344 440.304688 1002.050781 442.769531 999.472656 445.59375 C 998.847656 446.28125 997.789062 446.324219 997.109375 445.707031 C 996.425781 445.082031 996.378906 444.023438 997 443.34375 C 999.566406 440.535156 1001.773438 438.082031 1003.210938 436.449219 L 1003.210938 436.441406 C 1009.191406 429.667969 1012.0625 426.402344 1013.878906 424.78125 C 1016.070312 422.820312 1016.984375 422.824219 1019.136719 422.617188 C 1019.140625 422.617188 1019.148438 422.617188 1019.152344 422.617188 C 1023.667969 422.25 1028.246094 423.75 1031.382812 426.203125 C 1033.632812 427.957031 1035.152344 430.210938 1035.546875 432.597656 L 1035.546875 432.601562 C 1036.054688 435.695312 1034.773438 440.382812 1032.496094 443.359375 C 1031.789062 444.289062 1028 448.511719 1023.433594 453.492188 Z M 1023.433594 453.492188 " fill-opacity="1" fill-rule="evenodd"/></g></svg>