<svg xmlns="http://www.w3.org/2000/svg" xmlns:xlink="http://www.w3.org/1999/xlink" width="1920" zoomAndPan="magnify" viewBox="0 0 1440 809.999993" height="1080" preserveAspectRatio="xMidYMid meet" version="1.0"><defs><clipPath id="adfbe4e904"><path d="M 749 329 L 770 329 L 770 349 L 749 349 Z M 749 329 " clip-rule="nonzero"/></clipPath><clipPath id="6865886e4b"><path d="M 655.5 342.917969 L 773.042969 318.75 L 797.207031 436.292969 L 679.667969 460.457031 Z M 655.5 342.917969 " clip-rule="nonzero"/></clipPath><clipPath id="17a1eda963"><path d="M 655.5 342.917969 L 773.042969 318.75 L 797.207031 436.292969 L 679.667969 460.457031 Z M 655.5 342.917969 " clip-rule="nonzero"/></clipPath><clipPath id="50bf4fa4c2"><path d="M 742 321 L 778 321 L 778 372 L 742 372 Z M 742 321 " clip-rule="nonzero"/></clipPath><clipPath id="7ff01c2eb9"><path d="M 655.5 342.917969 L 773.042969 318.75 L 797.207031 436.292969 L 679.667969 460.457031 Z M 655.5 342.917969 " clip-rule="nonzero"/></clipPath><clipPath id="b5877b59d7"><path d="M 655.5 342.917969 L 773.042969 318.75 L 797.207031 436.292969 L 679.667969 460.457031 Z M 655.5 342.917969 " clip-rule="nonzero"/></clipPath><clipPath id="eeb2806c57"><path d="M 660 351 L 797 351 L 797 453 L 660 453 Z M 660 351 " clip-rule="nonzero"/></clipPath><clipPath id="786ff14a19"><path d="M 655.5 342.917969 L 773.042969 318.75 L 797.207031 436.292969 L 679.667969 460.457031 Z M 655.5 342.917969 " clip-rule="nonzero"/></clipPath><clipPath id="afc83241a5"><path d="M 655.5 342.917969 L 773.042969 318.75 L 797.207031 436.292969 L 679.667969 460.457031 Z M 655.5 342.917969 " clip-rule="nonzero"/></clipPath><clipPath id="959fc72ea4"><path d="M 703 380 L 708 380 L 708 388 L 703 388 Z M 703 380 " clip-rule="nonzero"/></clipPath><clipPath id="b8b6b1acd2"><path d="M 655.5 342.917969 L 773.042969 318.75 L 797.207031 436.292969 L 679.667969 460.457031 Z M 655.5 342.917969 " clip-rule="nonzero"/></clipPath><clipPath id="121824ed08"><path d="M 655.5 342.917969 L 773.042969 318.75 L 797.207031 436.292969 L 679.667969 460.457031 Z M 655.5 342.917969 " clip-rule="nonzero"/></clipPath><clipPath id="97ae033ce6"><path d="M 705 391 L 711 391 L 711 400 L 705 400 Z M 705 391 " clip-rule="nonzero"/></clipPath><clipPath id="a86252b89e"><path d="M 655.5 342.917969 L 773.042969 318.75 L 797.207031 436.292969 L 679.667969 460.457031 Z M 655.5 342.917969 " clip-rule="nonzero"/></clipPath><clipPath id="8c4b475145"><path d="M 655.5 342.917969 L 773.042969 318.75 L 797.207031 436.292969 L 679.667969 460.457031 Z M 655.5 342.917969 " clip-rule="nonzero"/></clipPath><clipPath id="af50b540db"><path d="M 707 402 L 713 402 L 713 411 L 707 411 Z M 707 402 " clip-rule="nonzero"/></clipPath><clipPath id="d20a15fd95"><path d="M 655.5 342.917969 L 773.042969 318.75 L 797.207031 436.292969 L 679.667969 460.457031 Z M 655.5 342.917969 " clip-rule="nonzero"/></clipPath><clipPath id="959aa3f85f"><path d="M 655.5 342.917969 L 773.042969 318.75 L 797.207031 436.292969 L 679.667969 460.457031 Z M 655.5 342.917969 " clip-rule="nonzero"/></clipPath><clipPath id="546b884cc6"><path d="M 710 414 L 715 414 L 715 422 L 710 422 Z M 710 414 " clip-rule="nonzero"/></clipPath><clipPath id="5cab838b00"><path d="M 655.5 342.917969 L 773.042969 318.75 L 797.207031 436.292969 L 679.667969 460.457031 Z M 655.5 342.917969 " clip-rule="nonzero"/></clipPath><clipPath id="f57ac9757a"><path d="M 655.5 342.917969 L 773.042969 318.75 L 797.207031 436.292969 L 679.667969 460.457031 Z M 655.5 342.917969 " clip-rule="nonzero"/></clipPath><clipPath id="a5ab10a91a"><path d="M 712 425 L 718 425 L 718 434 L 712 434 Z M 712 425 " clip-rule="nonzero"/></clipPath><clipPath id="5696c24d81"><path d="M 655.5 342.917969 L 773.042969 318.75 L 797.207031 436.292969 L 679.667969 460.457031 Z M 655.5 342.917969 " clip-rule="nonzero"/></clipPath><clipPath id="562d1e22c7"><path d="M 655.5 342.917969 L 773.042969 318.75 L 797.207031 436.292969 L 679.667969 460.457031 Z M 655.5 342.917969 " clip-rule="nonzero"/></clipPath><clipPath id="62a07cf664"><path d="M 714 437 L 720 437 L 720 445 L 714 445 Z M 714 437 " clip-rule="nonzero"/></clipPath><clipPath id="e058a1bdde"><path d="M 655.5 342.917969 L 773.042969 318.75 L 797.207031 436.292969 L 679.667969 460.457031 Z M 655.5 342.917969 " clip-rule="nonzero"/></clipPath><clipPath id="b38b50da1a"><path d="M 655.5 342.917969 L 773.042969 318.75 L 797.207031 436.292969 L 679.667969 460.457031 Z M 655.5 342.917969 " clip-rule="nonzero"/></clipPath><clipPath id="181b056358"><path d="M 738 359 L 743 359 L 743 367 L 738 367 Z M 738 359 " clip-rule="nonzero"/></clipPath><clipPath id="b853a4bcd7"><path d="M 655.5 342.917969 L 773.042969 318.75 L 797.207031 436.292969 L 679.667969 460.457031 Z M 655.5 342.917969 " clip-rule="nonzero"/></clipPath><clipPath id="e167a10650"><path d="M 655.5 342.917969 L 773.042969 318.75 L 797.207031 436.292969 L 679.667969 460.457031 Z M 655.5 342.917969 " clip-rule="nonzero"/></clipPath><clipPath id="beb29f6526"><path d="M 740 370 L 746 370 L 746 379 L 740 379 Z M 740 370 " clip-rule="nonzero"/></clipPath><clipPath id="5859a1dc2e"><path d="M 655.5 342.917969 L 773.042969 318.75 L 797.207031 436.292969 L 679.667969 460.457031 Z M 655.5 342.917969 " clip-rule="nonzero"/></clipPath><clipPath id="e315a8361c"><path d="M 655.5 342.917969 L 773.042969 318.75 L 797.207031 436.292969 L 679.667969 460.457031 Z M 655.5 342.917969 " clip-rule="nonzero"/></clipPath><clipPath id="a8fd255a2a"><path d="M 742 381 L 748 381 L 748 390 L 742 390 Z M 742 381 " clip-rule="nonzero"/></clipPath><clipPath id="f8772d8197"><path d="M 655.5 342.917969 L 773.042969 318.75 L 797.207031 436.292969 L 679.667969 460.457031 Z M 655.5 342.917969 " clip-rule="nonzero"/></clipPath><clipPath id="d2535d1a26"><path d="M 655.5 342.917969 L 773.042969 318.75 L 797.207031 436.292969 L 679.667969 460.457031 Z M 655.5 342.917969 " clip-rule="nonzero"/></clipPath><clipPath id="c151ca5f97"><path d="M 745 393 L 750 393 L 750 401 L 745 401 Z M 745 393 " clip-rule="nonzero"/></clipPath><clipPath id="8b1d9f62e1"><path d="M 655.5 342.917969 L 773.042969 318.75 L 797.207031 436.292969 L 679.667969 460.457031 Z M 655.5 342.917969 " clip-rule="nonzero"/></clipPath><clipPath id="9d4f2b95fd"><path d="M 655.5 342.917969 L 773.042969 318.75 L 797.207031 436.292969 L 679.667969 460.457031 Z M 655.5 342.917969 " clip-rule="nonzero"/></clipPath><clipPath id="890f1f3d83"><path d="M 747 404 L 753 404 L 753 413 L 747 413 Z M 747 404 " clip-rule="nonzero"/></clipPath><clipPath id="b1b246868a"><path d="M 655.5 342.917969 L 773.042969 318.75 L 797.207031 436.292969 L 679.667969 460.457031 Z M 655.5 342.917969 " clip-rule="nonzero"/></clipPath><clipPath id="0ef0bc6508"><path d="M 655.5 342.917969 L 773.042969 318.75 L 797.207031 436.292969 L 679.667969 460.457031 Z M 655.5 342.917969 " clip-rule="nonzero"/></clipPath><clipPath id="e8c5c15eb0"><path d="M 750 416 L 755 416 L 755 424 L 750 424 Z M 750 416 " clip-rule="nonzero"/></clipPath><clipPath id="789d3021f4"><path d="M 655.5 342.917969 L 773.042969 318.75 L 797.207031 436.292969 L 679.667969 460.457031 Z M 655.5 342.917969 " clip-rule="nonzero"/></clipPath><clipPath id="a500749c87"><path d="M 655.5 342.917969 L 773.042969 318.75 L 797.207031 436.292969 L 679.667969 460.457031 Z M 655.5 342.917969 " clip-rule="nonzero"/></clipPath><clipPath id="aad50f7661"><path d="M 691 397 L 703 397 L 703 417 L 691 417 Z M 691 397 " clip-rule="nonzero"/></clipPath><clipPath id="d01c46e540"><path d="M 655.5 342.917969 L 773.042969 318.75 L 797.207031 436.292969 L 679.667969 460.457031 Z M 655.5 342.917969 " clip-rule="nonzero"/></clipPath><clipPath id="826d3f7d22"><path d="M 655.5 342.917969 L 773.042969 318.75 L 797.207031 436.292969 L 679.667969 460.457031 Z M 655.5 342.917969 " clip-rule="nonzero"/></clipPath><clipPath id="a4819e3b93"><path d="M 712 385 L 747 385 L 747 425 L 712 425 Z M 712 385 " clip-rule="nonzero"/></clipPath><clipPath id="cf55602878"><path d="M 655.5 342.917969 L 773.042969 318.75 L 797.207031 436.292969 L 679.667969 460.457031 Z M 655.5 342.917969 " clip-rule="nonzero"/></clipPath><clipPath id="47cd52bc0e"><path d="M 655.5 342.917969 L 773.042969 318.75 L 797.207031 436.292969 L 679.667969 460.457031 Z M 655.5 342.917969 " clip-rule="nonzero"/></clipPath><clipPath id="2bd1d71495"><path d="M 755 377 L 768 377 L 768 409 L 755 409 Z M 755 377 " clip-rule="nonzero"/></clipPath><clipPath id="b9b9fb4a86"><path d="M 655.5 342.917969 L 773.042969 318.75 L 797.207031 436.292969 L 679.667969 460.457031 Z M 655.5 342.917969 " clip-rule="nonzero"/></clipPath><clipPath id="9349c1277e"><path d="M 655.5 342.917969 L 773.042969 318.75 L 797.207031 436.292969 L 679.667969 460.457031 Z M 655.5 342.917969 " clip-rule="nonzero"/></clipPath><clipPath id="0ab9a81db0"><path d="M 685 421 L 704 421 L 704 435 L 685 435 Z M 685 421 " clip-rule="nonzero"/></clipPath><clipPath id="3aeba23e51"><path d="M 655.5 342.917969 L 773.042969 318.75 L 797.207031 436.292969 L 679.667969 460.457031 Z M 655.5 342.917969 " clip-rule="nonzero"/></clipPath><clipPath id="fe6591ce81"><path d="M 655.5 342.917969 L 773.042969 318.75 L 797.207031 436.292969 L 679.667969 460.457031 Z M 655.5 342.917969 " clip-rule="nonzero"/></clipPath><clipPath id="c6a47aff41"><path d="M 688 418 L 702 418 L 702 437 L 688 437 Z M 688 418 " clip-rule="nonzero"/></clipPath><clipPath id="a92e81611c"><path d="M 655.5 342.917969 L 773.042969 318.75 L 797.207031 436.292969 L 679.667969 460.457031 Z M 655.5 342.917969 " clip-rule="nonzero"/></clipPath><clipPath id="03ed0ea85e"><path d="M 655.5 342.917969 L 773.042969 318.75 L 797.207031 436.292969 L 679.667969 460.457031 Z M 655.5 342.917969 " clip-rule="nonzero"/></clipPath><clipPath id="4b1f6fcbc8"><path d="M 687 453 L 688 453 L 688 454 L 687 454 Z M 687 453 " clip-rule="nonzero"/></clipPath><clipPath id="ef3bf71501"><path d="M 642.789062 467.910156 L 691.722656 425.886719 L 711.265625 448.644531 L 662.335938 490.667969 Z M 642.789062 467.910156 " clip-rule="nonzero"/></clipPath><clipPath id="cea8fe76b8"><path d="M 642.789062 467.910156 L 691.722656 425.886719 L 711.265625 448.644531 L 662.335938 490.667969 Z M 642.789062 467.910156 " clip-rule="nonzero"/></clipPath><clipPath id="798722032b"><path d="M 642.789062 467.910156 L 691.722656 425.886719 L 711.265625 448.644531 L 662.335938 490.667969 Z M 642.789062 467.910156 " clip-rule="nonzero"/></clipPath><clipPath id="4da3b4b8a5"><path d="M 677 467 L 678 467 L 678 468 L 677 468 Z M 677 467 " clip-rule="nonzero"/></clipPath><clipPath id="3147a58ca8"><path d="M 642.789062 467.910156 L 691.722656 425.886719 L 711.265625 448.644531 L 662.335938 490.667969 Z M 642.789062 467.910156 " clip-rule="nonzero"/></clipPath><clipPath id="6e5d8a1763"><path d="M 642.789062 467.910156 L 691.722656 425.886719 L 711.265625 448.644531 L 662.335938 490.667969 Z M 642.789062 467.910156 " clip-rule="nonzero"/></clipPath><clipPath id="e5b8c28479"><path d="M 642.789062 467.910156 L 691.722656 425.886719 L 711.265625 448.644531 L 662.335938 490.667969 Z M 642.789062 467.910156 " clip-rule="nonzero"/></clipPath><clipPath id="84451cf3da"><path d="M 671 475 L 672 475 L 672 476 L 671 476 Z M 671 475 " clip-rule="nonzero"/></clipPath><clipPath id="dd2feb046c"><path d="M 642.789062 467.910156 L 691.722656 425.886719 L 711.265625 448.644531 L 662.335938 490.667969 Z M 642.789062 467.910156 " clip-rule="nonzero"/></clipPath><clipPath id="71256eeb8c"><path d="M 642.789062 467.910156 L 691.722656 425.886719 L 711.265625 448.644531 L 662.335938 490.667969 Z M 642.789062 467.910156 " clip-rule="nonzero"/></clipPath><clipPath id="2be98125bd"><path d="M 642.789062 467.910156 L 691.722656 425.886719 L 711.265625 448.644531 L 662.335938 490.667969 Z M 642.789062 467.910156 " clip-rule="nonzero"/></clipPath><clipPath id="7b17ffb67a"><path d="M 657 451 L 687 451 L 687 489 L 657 489 Z M 657 451 " clip-rule="nonzero"/></clipPath><clipPath id="b8d9c3f8a0"><path d="M 642.789062 467.910156 L 691.722656 425.886719 L 711.265625 448.644531 L 662.335938 490.667969 Z M 642.789062 467.910156 " clip-rule="nonzero"/></clipPath><clipPath id="dabe2ed535"><path d="M 642.789062 467.910156 L 691.722656 425.886719 L 711.265625 448.644531 L 662.335938 490.667969 Z M 642.789062 467.910156 " clip-rule="nonzero"/></clipPath><clipPath id="68f44bd518"><path d="M 642.789062 467.910156 L 691.722656 425.886719 L 711.265625 448.644531 L 662.335938 490.667969 Z M 642.789062 467.910156 " clip-rule="nonzero"/></clipPath><clipPath id="44fb941687"><path d="M 651.96875 478.597656 L 684.914062 450.304688 L 695.292969 462.390625 L 662.351562 490.683594 Z M 651.96875 478.597656 " clip-rule="nonzero"/></clipPath><clipPath id="47f7cb8832"><path d="M 651.96875 478.597656 L 684.914062 450.304688 L 695.269531 462.367188 L 662.328125 490.660156 Z M 651.96875 478.597656 " clip-rule="nonzero"/></clipPath><clipPath id="ed1d85acec"><path d="M 702 445 L 703 445 L 703 446 L 702 446 Z M 702 445 " clip-rule="nonzero"/></clipPath><clipPath id="6ea296ca16"><path d="M 642.789062 467.910156 L 691.722656 425.886719 L 711.265625 448.644531 L 662.335938 490.667969 Z M 642.789062 467.910156 " clip-rule="nonzero"/></clipPath><clipPath id="418bb8df33"><path d="M 642.789062 467.910156 L 691.722656 425.886719 L 711.265625 448.644531 L 662.335938 490.667969 Z M 642.789062 467.910156 " clip-rule="nonzero"/></clipPath><clipPath id="434d8f6dbb"><path d="M 642.789062 467.910156 L 691.722656 425.886719 L 711.265625 448.644531 L 662.335938 490.667969 Z M 642.789062 467.910156 " clip-rule="nonzero"/></clipPath><clipPath id="0af84524a8"><path d="M 676 427 L 701 427 L 701 453 L 676 453 Z M 676 427 " clip-rule="nonzero"/></clipPath><clipPath id="5981963b19"><path d="M 642.789062 467.910156 L 691.722656 425.886719 L 711.265625 448.644531 L 662.335938 490.667969 Z M 642.789062 467.910156 " clip-rule="nonzero"/></clipPath><clipPath id="d0c0154be1"><path d="M 642.789062 467.910156 L 691.722656 425.886719 L 711.265625 448.644531 L 662.335938 490.667969 Z M 642.789062 467.910156 " clip-rule="nonzero"/></clipPath><clipPath id="b4ffdf9186"><path d="M 642.789062 467.910156 L 691.722656 425.886719 L 711.265625 448.644531 L 662.335938 490.667969 Z M 642.789062 467.910156 " clip-rule="nonzero"/></clipPath></defs><g clip-path="url(#adfbe4e904)"><g clip-path="url(#6865886e4b)"><g clip-path="url(#17a1eda963)"><path fill="#7fb487" d="M 758.316406 333.632812 C 755.175781 334.277344 753.152344 337.351562 753.800781 340.488281 C 754.445312 343.621094 757.515625 345.652344 760.65625 345.007812 C 763.796875 344.363281 765.820312 341.285156 765.175781 338.152344 C 764.527344 335.011719 761.457031 332.988281 758.316406 333.632812 Z M 761.4375 348.800781 C 756.207031 349.875 751.082031 346.496094 750.007812 341.269531 C 748.933594 336.042969 752.308594 330.917969 757.539062 329.839844 C 762.765625 328.765625 767.890625 332.144531 768.964844 337.371094 C 770.042969 342.601562 766.664062 347.726562 761.4375 348.800781 " fill-opacity="1" fill-rule="nonzero"/></g></g></g><g clip-path="url(#50bf4fa4c2)"><g clip-path="url(#7ff01c2eb9)"><g clip-path="url(#b5877b59d7)"><path fill="#7fb487" d="M 756.757812 326.050781 C 749.441406 327.554688 744.710938 334.734375 746.214844 342.050781 C 748.757812 354.417969 759.859375 364.625 765.25 367.34375 C 769.128906 362.71875 775.300781 348.960938 772.757812 336.59375 C 771.253906 329.273438 764.074219 324.546875 756.757812 326.050781 Z M 766.113281 371.550781 C 765.78125 371.617188 765.421875 371.597656 765.078125 371.476562 C 758.949219 369.324219 745.390625 357.261719 742.425781 342.828125 C 740.492188 333.421875 746.566406 324.195312 755.980469 322.257812 C 765.390625 320.324219 774.617188 326.40625 776.550781 335.8125 C 779.515625 350.246094 771.820312 366.679688 767.035156 371.074219 C 766.769531 371.320312 766.445312 371.480469 766.113281 371.550781 " fill-opacity="1" fill-rule="nonzero"/></g></g></g><g clip-path="url(#eeb2806c57)"><g clip-path="url(#786ff14a19)"><g clip-path="url(#afc83241a5)"><path fill="#7fb487" d="M 795.3125 436.679688 C 795.105469 436.722656 794.882812 436.730469 794.664062 436.707031 L 754.691406 431.316406 L 720.089844 452.039062 C 719.710938 452.265625 719.265625 452.355469 718.828125 452.296875 L 678.191406 446.824219 C 677.375 446.710938 676.714844 446.097656 676.550781 445.292969 L 660.957031 369.460938 C 660.832031 368.84375 661.007812 368.207031 661.4375 367.746094 C 661.871094 367.289062 662.488281 367.066406 663.113281 367.148438 L 703.085938 372.539062 L 737.6875 351.816406 C 738.066406 351.589844 738.511719 351.5 738.945312 351.554688 L 740.980469 351.832031 C 742.035156 351.976562 742.777344 352.953125 742.640625 354.007812 C 742.496094 355.070312 741.519531 355.8125 740.457031 355.667969 L 739.097656 355.484375 L 704.496094 376.207031 C 704.117188 376.429688 703.671875 376.523438 703.238281 376.464844 L 665.296875 371.351562 L 680.0625 443.164062 L 718.675781 448.371094 L 753.28125 427.648438 C 753.660156 427.421875 754.101562 427.332031 754.539062 427.390625 L 792.476562 432.5 L 777.824219 361.238281 C 777.609375 360.195312 778.285156 359.167969 779.332031 358.953125 C 780.375 358.738281 781.402344 359.414062 781.617188 360.457031 L 796.820312 434.394531 C 796.945312 435.011719 796.769531 435.648438 796.335938 436.109375 C 796.058594 436.402344 795.707031 436.601562 795.3125 436.679688 " fill-opacity="1" fill-rule="nonzero"/></g></g></g><g clip-path="url(#959fc72ea4)"><g clip-path="url(#b8b6b1acd2)"><g clip-path="url(#121824ed08)"><path fill="#7fb487" d="M 706.226562 387.816406 C 705.183594 388.03125 704.15625 387.351562 703.941406 386.308594 L 703.160156 382.515625 C 702.945312 381.472656 703.625 380.445312 704.667969 380.230469 C 705.710938 380.015625 706.738281 380.695312 706.953125 381.738281 L 707.734375 385.53125 C 707.949219 386.574219 707.269531 387.601562 706.226562 387.816406 " fill-opacity="1" fill-rule="nonzero"/></g></g></g><g clip-path="url(#97ae033ce6)"><g clip-path="url(#a86252b89e)"><g clip-path="url(#8c4b475145)"><path fill="#7fb487" d="M 708.566406 399.191406 C 707.519531 399.40625 706.496094 398.726562 706.28125 397.683594 L 705.5 393.890625 C 705.285156 392.847656 705.960938 391.820312 707.007812 391.605469 C 708.050781 391.390625 709.078125 392.070312 709.292969 393.113281 L 710.070312 396.902344 C 710.285156 397.949219 709.609375 398.976562 708.566406 399.191406 " fill-opacity="1" fill-rule="nonzero"/></g></g></g><g clip-path="url(#af50b540db)"><g clip-path="url(#d20a15fd95)"><g clip-path="url(#959aa3f85f)"><path fill="#7fb487" d="M 710.90625 410.566406 C 709.859375 410.78125 708.832031 410.101562 708.617188 409.058594 L 707.839844 405.265625 C 707.625 404.222656 708.300781 403.195312 709.34375 402.980469 C 710.390625 402.765625 711.417969 403.445312 711.628906 404.488281 L 712.410156 408.277344 C 712.625 409.324219 711.949219 410.351562 710.90625 410.566406 " fill-opacity="1" fill-rule="nonzero"/></g></g></g><g clip-path="url(#546b884cc6)"><g clip-path="url(#5cab838b00)"><g clip-path="url(#f57ac9757a)"><path fill="#7fb487" d="M 713.242188 421.941406 C 712.199219 422.15625 711.171875 421.476562 710.957031 420.433594 L 710.179688 416.640625 C 709.964844 415.597656 710.640625 414.570312 711.683594 414.355469 C 712.726562 414.140625 713.753906 414.816406 713.96875 415.863281 L 714.75 419.652344 C 714.964844 420.699219 714.289062 421.726562 713.242188 421.941406 " fill-opacity="1" fill-rule="nonzero"/></g></g></g><g clip-path="url(#a5ab10a91a)"><g clip-path="url(#5696c24d81)"><g clip-path="url(#562d1e22c7)"><path fill="#7fb487" d="M 715.582031 433.316406 C 714.539062 433.53125 713.511719 432.851562 713.296875 431.808594 L 712.515625 428.015625 C 712.300781 426.972656 712.980469 425.945312 714.023438 425.730469 C 715.066406 425.515625 716.09375 426.191406 716.308594 427.238281 L 717.089844 431.027344 C 717.300781 432.074219 716.625 433.101562 715.582031 433.316406 " fill-opacity="1" fill-rule="nonzero"/></g></g></g><g clip-path="url(#62a07cf664)"><g clip-path="url(#e058a1bdde)"><g clip-path="url(#b38b50da1a)"><path fill="#7fb487" d="M 717.921875 444.691406 C 716.875 444.90625 715.851562 444.226562 715.636719 443.183594 L 714.855469 439.390625 C 714.640625 438.347656 715.316406 437.320312 716.363281 437.105469 C 717.40625 436.890625 718.433594 437.566406 718.648438 438.613281 L 719.425781 442.402344 C 719.640625 443.449219 718.964844 444.476562 717.921875 444.691406 " fill-opacity="1" fill-rule="nonzero"/></g></g></g><g clip-path="url(#181b056358)"><g clip-path="url(#b853a4bcd7)"><g clip-path="url(#e167a10650)"><path fill="#7fb487" d="M 741.414062 366.75 C 740.371094 366.960938 739.34375 366.285156 739.128906 365.242188 L 738.347656 361.449219 C 738.132812 360.40625 738.8125 359.378906 739.855469 359.164062 C 740.898438 358.949219 741.925781 359.625 742.140625 360.671875 L 742.921875 364.460938 C 743.136719 365.507812 742.457031 366.535156 741.414062 366.75 " fill-opacity="1" fill-rule="nonzero"/></g></g></g><g clip-path="url(#beb29f6526)"><g clip-path="url(#5859a1dc2e)"><g clip-path="url(#e315a8361c)"><path fill="#7fb487" d="M 743.753906 378.125 C 742.710938 378.335938 741.683594 377.660156 741.46875 376.617188 L 740.6875 372.824219 C 740.472656 371.78125 741.148438 370.753906 742.195312 370.539062 C 743.238281 370.324219 744.265625 371 744.480469 372.046875 L 745.257812 375.835938 C 745.472656 376.882812 744.796875 377.910156 743.753906 378.125 " fill-opacity="1" fill-rule="nonzero"/></g></g></g><g clip-path="url(#a8fd255a2a)"><g clip-path="url(#f8772d8197)"><g clip-path="url(#d2535d1a26)"><path fill="#7fb487" d="M 746.09375 389.496094 C 745.046875 389.710938 744.019531 389.035156 743.804688 387.992188 L 743.027344 384.199219 C 742.8125 383.15625 743.488281 382.128906 744.53125 381.914062 C 745.578125 381.699219 746.605469 382.375 746.820312 383.421875 L 747.597656 387.210938 C 747.8125 388.257812 747.136719 389.285156 746.09375 389.496094 " fill-opacity="1" fill-rule="nonzero"/></g></g></g><g clip-path="url(#c151ca5f97)"><g clip-path="url(#8b1d9f62e1)"><g clip-path="url(#9d4f2b95fd)"><path fill="#7fb487" d="M 748.429688 400.871094 C 747.386719 401.085938 746.359375 400.410156 746.144531 399.367188 L 745.367188 395.574219 C 745.152344 394.53125 745.828125 393.503906 746.871094 393.289062 C 747.917969 393.074219 748.941406 393.75 749.15625 394.796875 L 749.9375 398.585938 C 750.152344 399.632812 749.476562 400.660156 748.429688 400.871094 " fill-opacity="1" fill-rule="nonzero"/></g></g></g><g clip-path="url(#890f1f3d83)"><g clip-path="url(#b1b246868a)"><g clip-path="url(#0ef0bc6508)"><path fill="#7fb487" d="M 750.769531 412.246094 C 749.726562 412.460938 748.699219 411.785156 748.484375 410.742188 L 747.703125 406.949219 C 747.488281 405.90625 748.167969 404.878906 749.210938 404.664062 C 750.253906 404.449219 751.28125 405.125 751.496094 406.171875 L 752.277344 409.960938 C 752.492188 411.007812 751.8125 412.035156 750.769531 412.246094 " fill-opacity="1" fill-rule="nonzero"/></g></g></g><g clip-path="url(#e8c5c15eb0)"><g clip-path="url(#789d3021f4)"><g clip-path="url(#a500749c87)"><path fill="#7fb487" d="M 753.109375 423.621094 C 752.066406 423.835938 751.039062 423.160156 750.824219 422.117188 L 750.042969 418.324219 C 749.828125 417.28125 750.503906 416.253906 751.550781 416.039062 C 752.59375 415.824219 753.621094 416.5 753.835938 417.546875 L 754.613281 421.335938 C 754.828125 422.382812 754.152344 423.40625 753.109375 423.621094 " fill-opacity="1" fill-rule="nonzero"/></g></g></g><g clip-path="url(#aad50f7661)"><g clip-path="url(#d01c46e540)"><g clip-path="url(#826d3f7d22)"><path fill="#7fb487" d="M 694.230469 415.96875 C 693.972656 416.023438 693.703125 416.023438 693.429688 415.964844 C 692.394531 415.738281 691.726562 414.707031 691.953125 413.667969 C 692.019531 413.351562 693.65625 405.953125 699.230469 398.570312 C 699.875 397.71875 701.089844 397.546875 701.9375 398.191406 C 702.789062 398.839844 702.960938 400.050781 702.320312 400.90625 C 697.285156 407.578125 695.75 414.414062 695.734375 414.488281 C 695.566406 415.253906 694.957031 415.820312 694.230469 415.96875 " fill-opacity="1" fill-rule="nonzero"/></g></g></g><g clip-path="url(#a4819e3b93)"><g clip-path="url(#cf55602878)"><g clip-path="url(#47cd52bc0e)"><path fill="#7fb487" d="M 741.34375 424.066406 C 736.914062 424.976562 733.644531 424.46875 731.355469 422.515625 C 727.375 419.125 727.667969 412.582031 727.964844 405.660156 C 728.238281 399.519531 728.515625 393.171875 725.484375 390.59375 C 723.742188 389.097656 720.714844 388.789062 716.484375 389.65625 C 715.953125 389.765625 715.410156 389.917969 714.878906 390.109375 C 713.867188 390.480469 712.761719 389.945312 712.410156 388.9375 C 712.046875 387.929688 712.570312 386.828125 713.574219 386.464844 C 714.28125 386.214844 715.003906 386.011719 715.707031 385.867188 C 721.238281 384.726562 725.265625 385.3125 727.996094 387.644531 C 732.46875 391.449219 732.140625 398.757812 731.835938 405.828125 C 731.585938 411.523438 731.320312 417.40625 733.867188 419.574219 C 735.167969 420.679688 737.425781 420.917969 740.5625 420.273438 C 741.667969 420.046875 742.757812 419.675781 743.808594 419.167969 C 744.765625 418.714844 745.929688 419.109375 746.390625 420.074219 C 746.855469 421.035156 746.453125 422.1875 745.484375 422.660156 C 744.152344 423.304688 742.757812 423.773438 741.34375 424.066406 " fill-opacity="1" fill-rule="nonzero"/></g></g></g><g clip-path="url(#2bd1d71495)"><g clip-path="url(#b9b9fb4a86)"><g clip-path="url(#9349c1277e)"><path fill="#7fb487" d="M 757.847656 408.230469 C 757.433594 408.316406 757 408.273438 756.59375 408.0625 C 755.640625 407.589844 755.246094 406.425781 755.730469 405.46875 C 761.617188 393.707031 763.839844 379.371094 763.867188 379.238281 C 764.027344 378.175781 765.019531 377.449219 766.0625 377.613281 C 767.121094 377.773438 767.851562 378.757812 767.6875 379.808594 C 767.597656 380.421875 765.363281 394.882812 759.1875 407.207031 C 758.914062 407.753906 758.402344 408.117188 757.847656 408.230469 " fill-opacity="1" fill-rule="nonzero"/></g></g></g><g clip-path="url(#0ab9a81db0)"><g clip-path="url(#3aeba23e51)"><g clip-path="url(#fe6591ce81)"><path fill="#7fb487" d="M 701.921875 434.148438 C 701.433594 434.246094 700.914062 434.160156 700.464844 433.867188 L 686.753906 424.832031 C 685.859375 424.242188 685.613281 423.042969 686.203125 422.152344 C 686.789062 421.257812 687.988281 421.011719 688.882812 421.597656 L 702.597656 430.636719 C 703.488281 431.222656 703.734375 432.421875 703.148438 433.316406 C 702.851562 433.761719 702.410156 434.046875 701.921875 434.148438 " fill-opacity="1" fill-rule="nonzero"/></g></g></g><g clip-path="url(#c6a47aff41)"><g clip-path="url(#a92e81611c)"><g clip-path="url(#03ed0ea85e)"><path fill="#7fb487" d="M 690.546875 436.484375 C 690.058594 436.585938 689.539062 436.5 689.09375 436.207031 C 688.199219 435.617188 687.953125 434.417969 688.539062 433.527344 L 697.578125 419.8125 C 698.164062 418.917969 699.363281 418.671875 700.257812 419.261719 C 701.152344 419.847656 701.398438 421.046875 700.808594 421.941406 L 691.773438 435.65625 C 691.476562 436.101562 691.035156 436.386719 690.546875 436.484375 " fill-opacity="1" fill-rule="nonzero"/></g></g></g><g clip-path="url(#4b1f6fcbc8)"><g clip-path="url(#ef3bf71501)"><g clip-path="url(#cea8fe76b8)"><g clip-path="url(#798722032b)"><path fill="#000000" d="M 687.753906 453.054688 L 687.75 453.050781 L 687.75 453.054688 Z M 687.753906 453.054688 " fill-opacity="1" fill-rule="nonzero"/></g></g></g></g><g clip-path="url(#4da3b4b8a5)"><g clip-path="url(#3147a58ca8)"><g clip-path="url(#6e5d8a1763)"><g clip-path="url(#e5b8c28479)"><path fill="#000000" d="M 677.214844 467.402344 L 677.21875 467.402344 C 677.214844 467.398438 677.207031 467.394531 677.203125 467.394531 C 677.207031 467.398438 677.210938 467.398438 677.214844 467.402344 " fill-opacity="1" fill-rule="nonzero"/></g></g></g></g><g clip-path="url(#84451cf3da)"><g clip-path="url(#dd2feb046c)"><g clip-path="url(#71256eeb8c)"><g clip-path="url(#2be98125bd)"><path fill="#000000" d="M 671.96875 475.816406 C 671.972656 475.820312 671.972656 475.820312 671.972656 475.820312 L 671.96875 475.816406 " fill-opacity="1" fill-rule="nonzero"/></g></g></g></g><g clip-path="url(#7b17ffb67a)"><g clip-path="url(#b8d9c3f8a0)"><g clip-path="url(#dabe2ed535)"><g clip-path="url(#68f44bd518)"><g clip-path="url(#44fb941687)"><g clip-path="url(#47f7cb8832)"><path fill="#000000" d="M 660.707031 488.351562 C 661.070312 488.535156 661.472656 488.65625 661.875 488.707031 C 662.28125 488.753906 662.679688 488.734375 663.0625 488.671875 C 663.824219 488.539062 664.503906 488.253906 665.125 487.917969 C 665.746094 487.574219 666.316406 487.179688 666.851562 486.753906 C 667.386719 486.332031 667.890625 485.878906 668.371094 485.410156 C 669.332031 484.472656 670.210938 483.472656 671.03125 482.433594 C 671.441406 481.914062 671.835938 481.386719 672.21875 480.851562 C 672.601562 480.316406 672.972656 479.773438 673.332031 479.222656 C 673.894531 478.367188 674.433594 477.496094 674.949219 476.613281 C 675.28125 476.039062 675.605469 475.464844 675.925781 474.886719 C 676.375 474.066406 676.808594 473.242188 677.234375 472.417969 C 677.945312 471.03125 678.632812 469.636719 679.304688 468.238281 C 679.578125 467.667969 679.847656 467.101562 680.117188 466.53125 C 680.296875 466.152344 680.472656 465.773438 680.652344 465.394531 C 681.753906 463.042969 682.828125 460.675781 683.875 458.296875 C 684.574219 456.707031 685.269531 455.101562 685.945312 453.5 C 686.070312 453.207031 686.269531 452.726562 686.402344 452.40625 C 686.492188 452.191406 686.335938 451.949219 686.105469 451.953125 C 686.089844 451.953125 686.078125 451.953125 686.066406 451.957031 C 685.746094 452.007812 685.480469 452.230469 685.375 452.535156 C 685.308594 452.714844 685.242188 452.90625 685.195312 453.039062 C 684.601562 454.726562 683.96875 456.398438 683.296875 458.054688 C 682.320312 460.453125 681.265625 462.820312 680.105469 465.132812 C 680.027344 465.296875 679.945312 465.457031 679.859375 465.617188 C 679.820312 465.703125 679.777344 465.785156 679.734375 465.867188 C 679.71875 465.902344 679.699219 465.9375 679.679688 465.976562 C 679.652344 466.03125 679.621094 466.085938 679.59375 466.140625 C 679.566406 466.195312 679.539062 466.25 679.511719 466.304688 C 679.488281 466.347656 679.46875 466.386719 679.445312 466.425781 C 679.394531 466.523438 679.34375 466.625 679.292969 466.71875 C 679.292969 466.722656 679.292969 466.722656 679.289062 466.722656 C 679.214844 466.863281 679.144531 467.003906 679.070312 467.144531 C 678.996094 467.28125 678.910156 467.414062 678.835938 467.554688 C 678.757812 467.691406 678.683594 467.832031 678.597656 467.964844 L 678.59375 467.96875 C 677.90625 469.324219 677.109375 470.613281 676.316406 471.902344 C 675.757812 472.8125 675.171875 473.703125 674.601562 474.601562 L 674.597656 474.601562 C 674.238281 475.164062 673.882812 475.726562 673.480469 476.257812 C 673.480469 476.261719 673.480469 476.261719 673.480469 476.261719 L 673.476562 476.265625 C 673.023438 476.976562 672.523438 477.652344 672.035156 478.332031 C 671.84375 478.59375 671.660156 478.855469 671.46875 479.109375 C 671.277344 479.367188 671.089844 479.625 670.894531 479.878906 C 670.507812 480.386719 670.117188 480.890625 669.714844 481.386719 C 668.914062 482.375 668.082031 483.335938 667.199219 484.222656 C 666.753906 484.664062 666.296875 485.085938 665.824219 485.480469 C 665.347656 485.871094 664.855469 486.230469 664.347656 486.523438 C 663.839844 486.816406 663.308594 487.054688 662.792969 487.15625 C 662.277344 487.261719 661.789062 487.230469 661.355469 487.03125 C 660.921875 486.839844 660.542969 486.46875 660.230469 486.003906 C 659.917969 485.539062 659.679688 484.988281 659.484375 484.414062 C 659.292969 483.839844 659.148438 483.234375 659.035156 482.617188 C 658.917969 482.003906 658.835938 481.375 658.769531 480.746094 C 658.644531 479.480469 658.601562 478.199219 658.59375 476.910156 C 658.589844 475.625 658.628906 474.332031 658.683594 473.039062 L 658.496094 473.015625 C 658.253906 474.292969 658.0625 475.582031 657.933594 476.882812 C 657.804688 478.183594 657.738281 479.492188 657.765625 480.8125 C 657.796875 482.128906 657.914062 483.460938 658.265625 484.785156 C 658.445312 485.449219 658.691406 486.109375 659.0625 486.742188 C 659.25 487.054688 659.472656 487.363281 659.75 487.640625 C 660.019531 487.917969 660.34375 488.164062 660.707031 488.351562 " fill-opacity="1" fill-rule="nonzero"/></g></g></g></g></g></g><g clip-path="url(#ed1d85acec)"><g clip-path="url(#6ea296ca16)"><g clip-path="url(#418bb8df33)"><g clip-path="url(#434d8f6dbb)"><path fill="#000000" d="M 702.167969 445.320312 C 702.167969 445.324219 702.171875 445.324219 702.171875 445.324219 C 702.175781 445.324219 702.175781 445.328125 702.175781 445.328125 L 702.183594 445.308594 C 702.175781 445.3125 702.171875 445.316406 702.167969 445.320312 " fill-opacity="1" fill-rule="nonzero"/></g></g></g></g><g clip-path="url(#0af84524a8)"><g clip-path="url(#5981963b19)"><g clip-path="url(#d0c0154be1)"><g clip-path="url(#b4ffdf9186)"><path fill="#000000" d="M 682.613281 450.976562 L 684.40625 450.691406 L 684.890625 450.613281 C 684.890625 450.613281 686.070312 450.429688 686.078125 450.425781 C 686.351562 450.382812 686.632812 450.382812 686.890625 450.484375 C 687.117188 450.574219 687.300781 450.734375 687.492188 450.882812 C 687.785156 451.113281 688.078125 451.339844 688.371094 451.570312 L 688.375 451.570312 L 690.03125 452.863281 C 690.253906 453.035156 690.484375 452.96875 690.550781 452.714844 C 690.617188 452.460938 690.527344 452.074219 690.347656 451.855469 L 688.945312 450.144531 L 688 449 L 688.738281 446.542969 L 688.792969 446.363281 L 690.886719 439.371094 L 691.097656 439.53125 L 691.101562 439.535156 L 691.117188 439.515625 L 692.410156 440.421875 L 692.417969 440.429688 L 699.988281 446.097656 C 700.148438 446.214844 700.308594 446.246094 700.390625 446.117188 L 700.394531 446.113281 C 700.425781 446.0625 700.453125 446.003906 700.472656 445.933594 L 700.765625 444.789062 C 700.835938 444.523438 700.746094 444.144531 700.5625 443.941406 L 698.816406 442.035156 C 698.859375 441.980469 698.863281 441.90625 698.878906 441.835938 L 699.011719 441.332031 L 699.046875 441.199219 C 699.117188 440.933594 699.019531 440.664062 698.757812 440.597656 L 698.5625 440.550781 C 698.476562 440.527344 698.382812 440.527344 698.296875 440.550781 C 698.105469 440.59375 697.933594 440.722656 697.886719 440.902344 L 697.855469 441.015625 L 696.347656 439.34375 C 696.390625 439.289062 696.460938 439.234375 696.480469 439.164062 L 696.550781 438.902344 L 696.640625 438.546875 C 696.710938 438.28125 696.546875 438 696.28125 437.933594 L 696.085938 437.882812 C 695.914062 437.839844 695.703125 437.886719 695.558594 438 C 695.480469 438.058594 695.421875 438.136719 695.398438 438.226562 L 695.371094 438.324219 L 693.660156 436.445312 L 693.585938 436.359375 L 692.386719 435.039062 L 692.214844 434.855469 L 693.308594 431.359375 L 693.316406 431.332031 C 693.558594 430.523438 693.613281 428.835938 693.277344 427.917969 C 693.164062 427.605469 693.003906 427.378906 692.789062 427.3125 C 692.589844 427.246094 692.359375 427.328125 692.121094 427.5 C 691.359375 428.046875 690.515625 429.539062 690.269531 430.367188 C 690.265625 430.382812 689.96875 431.710938 689.539062 433.648438 C 689.527344 433.714844 689.511719 433.777344 689.5 433.84375 C 689.476562 433.941406 689.453125 434.039062 689.429688 434.140625 L 689.273438 434.195312 L 689.167969 434.230469 L 687.707031 434.722656 L 684.925781 435.65625 L 684.949219 435.5625 C 685.019531 435.296875 684.871094 435.019531 684.605469 434.953125 L 684.414062 434.902344 C 684.148438 434.835938 683.941406 435.019531 683.871094 435.285156 L 683.710938 435.902344 C 683.691406 435.976562 683.644531 436.035156 683.65625 436.105469 L 681.4375 436.824219 L 681.46875 436.710938 C 681.535156 436.445312 681.402344 436.167969 681.136719 436.101562 L 680.945312 436.050781 C 680.679688 435.984375 680.375 436.148438 680.304688 436.414062 L 680.140625 437.050781 C 680.121094 437.125 680.121094 437.195312 680.132812 437.265625 L 677.671875 438.097656 C 677.410156 438.183594 677.117188 438.46875 677.050781 438.734375 L 676.753906 439.875 C 676.683594 440.140625 676.871094 440.332031 677.144531 440.292969 L 686.175781 439.042969 L 687.996094 438.792969 L 688.421875 438.734375 C 688.390625 438.878906 688.359375 439.019531 688.328125 439.164062 C 687.457031 443.097656 686.558594 447.160156 686.25 448.570312 L 684.929688 449.097656 L 683.441406 449.695312 L 682.824219 449.941406 C 682.5625 450.046875 682.292969 450.339844 682.226562 450.59375 C 682.160156 450.847656 682.335938 451.019531 682.613281 450.976562 " fill-opacity="1" fill-rule="nonzero"/></g></g></g></g></svg>